<svg width="257" height="208" viewBox="0 0 257 208" fill="none" xmlns="http://www.w3.org/2000/svg">
<path d="M15.6095 147.668C16.3521 148.076 17.3648 148.28 18.6471 148.28C18.8174 148.28 18.9702 148.272 19.105 148.255C19.2403 148.239 19.335 148.225 19.3897 148.214C20.721 148.142 21.7642 147.504 22.5181 146.298C23.2714 145.092 23.6487 143.633 23.6487 141.92V141.648C23.621 140.525 23.51 139.617 23.3143 138.922C23.1186 138.229 22.7972 137.649 22.3484 137.184C21.9001 136.719 21.2736 136.313 20.4707 135.966C19.7777 135.74 19.0785 135.627 18.3742 135.627C17.1968 135.627 16.2754 135.897 15.6095 136.437V147.668ZM12.2257 136.511C11.5654 135.966 10.6186 135.693 9.38597 135.693C8.72567 135.693 8.04902 135.806 7.35489 136.032C6.17752 136.533 5.36215 137.198 4.9088 138.026C4.45431 138.855 4.21071 140.085 4.17801 141.714C4.17801 141.742 4.16673 141.789 4.14474 141.855C4.12275 141.92 4.11147 141.965 4.11147 141.986C4.11147 143.082 4.28232 144.102 4.62347 145.047C4.96405 145.991 5.46421 146.756 6.12226 147.343C6.77917 147.929 7.55055 148.241 8.43697 148.28C8.48038 148.291 8.56159 148.305 8.68056 148.321C8.79842 148.338 8.94277 148.346 9.11363 148.346C10.4399 148.346 11.4774 148.145 12.2257 147.743V136.511ZM8.8407 131.365H18.9854V132.447C18.1926 132.492 17.6073 132.542 17.2273 132.601C16.8478 132.659 16.4829 132.811 16.1333 133.059C15.7837 133.306 15.6095 133.689 15.6095 134.207V135.156C16.2365 134.799 16.9312 134.562 17.6936 134.446C18.4554 134.33 19.0204 134.273 19.3897 134.273C20.4075 134.273 21.3723 134.451 22.283 134.809C23.193 135.168 23.9859 135.67 24.6591 136.317C25.3335 136.964 25.863 137.736 26.2487 138.633C26.6338 139.531 26.8261 140.492 26.8261 141.516C26.8261 142.931 26.5165 144.262 25.8974 145.509C25.2788 146.756 24.3924 147.756 23.2399 148.506C22.0873 149.259 20.7379 149.634 19.1912 149.634L19.1258 149.568C18.5913 149.568 17.9456 149.503 17.1861 149.374C16.4265 149.244 15.901 149.084 15.6095 148.891V150.171C15.6095 150.997 15.7335 151.598 15.9811 151.975C16.2281 152.353 16.5658 152.59 16.9921 152.686C17.4184 152.782 18.0821 152.847 18.9854 152.88V153.962H8.8407V152.88C9.76546 152.847 10.4399 152.782 10.8633 152.686C11.2874 152.59 11.6195 152.354 11.8625 151.98C12.1044 151.605 12.2257 151.002 12.2257 150.171V148.957C11.9336 149.144 11.4097 149.304 10.6536 149.436C9.89628 149.568 9.24839 149.634 8.70932 149.634L8.57681 149.7C7.0363 149.7 5.69145 149.324 4.54114 148.573C3.39084 147.821 2.51345 146.824 1.90784 145.579C1.3028 144.335 1 143.002 1 141.582C1 140.211 1.33156 138.973 1.99524 137.87C2.6578 136.765 3.56057 135.903 4.70185 135.28C5.8437 134.658 7.08817 134.347 8.43697 134.347C9.92786 134.347 11.1909 134.639 12.2257 135.222C12.2257 135.195 12.2172 135.159 12.2008 135.115C12.1839 135.071 12.1698 135.038 12.1591 135.016C12.1321 133.937 11.8653 133.248 11.3584 132.951C10.8526 132.654 10.0136 132.486 8.8407 132.447V131.365Z" fill="#0B0B0C"/>
<path d="M15.6095 147.668C16.3521 148.076 17.3648 148.28 18.6471 148.28C18.8174 148.28 18.9702 148.272 19.105 148.255C19.2403 148.239 19.335 148.225 19.3897 148.214C20.721 148.142 21.7642 147.504 22.5181 146.298C23.2714 145.092 23.6487 143.633 23.6487 141.92V141.648C23.621 140.525 23.51 139.617 23.3143 138.922C23.1186 138.229 22.7972 137.649 22.3484 137.184C21.9001 136.719 21.2736 136.313 20.4707 135.966C19.7777 135.74 19.0785 135.627 18.3742 135.627C17.1968 135.627 16.2754 135.897 15.6095 136.437V147.668ZM12.2257 136.511C11.5654 135.966 10.6186 135.693 9.38597 135.693C8.72567 135.693 8.04902 135.806 7.35489 136.032C6.17752 136.533 5.36215 137.198 4.9088 138.026C4.45431 138.855 4.21071 140.085 4.17801 141.714C4.17801 141.742 4.16673 141.789 4.14474 141.855C4.12275 141.92 4.11147 141.965 4.11147 141.986C4.11147 143.082 4.28232 144.102 4.62347 145.047C4.96405 145.991 5.46421 146.756 6.12226 147.343C6.77917 147.929 7.55055 148.241 8.43697 148.28C8.48038 148.291 8.56159 148.305 8.68056 148.321C8.79842 148.338 8.94277 148.346 9.11363 148.346C10.4399 148.346 11.4774 148.145 12.2257 147.743V136.511ZM8.8407 131.365H18.9854V132.447C18.1926 132.492 17.6073 132.542 17.2273 132.601C16.8478 132.659 16.4829 132.811 16.1333 133.059C15.7837 133.306 15.6095 133.689 15.6095 134.207V135.156C16.2365 134.799 16.9312 134.562 17.6936 134.446C18.4554 134.33 19.0204 134.273 19.3897 134.273C20.4075 134.273 21.3723 134.451 22.283 134.809C23.193 135.168 23.9859 135.67 24.6591 136.317C25.3335 136.964 25.863 137.736 26.2487 138.633C26.6338 139.531 26.8261 140.492 26.8261 141.516C26.8261 142.931 26.5165 144.262 25.8974 145.509C25.2788 146.756 24.3924 147.756 23.2399 148.506C22.0873 149.259 20.7379 149.634 19.1912 149.634L19.1258 149.568C18.5913 149.568 17.9456 149.503 17.1861 149.374C16.4265 149.244 15.901 149.084 15.6095 148.891V150.171C15.6095 150.997 15.7335 151.598 15.9811 151.975C16.2281 152.353 16.5658 152.59 16.9921 152.686C17.4184 152.782 18.0821 152.847 18.9854 152.88V153.962H8.8407V152.88C9.76546 152.847 10.4399 152.782 10.8633 152.686C11.2874 152.59 11.6195 152.354 11.8625 151.98C12.1044 151.605 12.2257 151.002 12.2257 150.171V148.957C11.9336 149.144 11.4097 149.304 10.6536 149.436C9.89628 149.568 9.24839 149.634 8.70932 149.634L8.57681 149.7C7.0363 149.7 5.69145 149.324 4.54114 148.573C3.39084 147.821 2.51345 146.824 1.90784 145.579C1.3028 144.335 1 143.002 1 141.582C1 140.211 1.33156 138.973 1.99524 137.87C2.6578 136.765 3.56057 135.903 4.70185 135.28C5.8437 134.658 7.08817 134.347 8.43697 134.347C9.92786 134.347 11.1909 134.639 12.2257 135.222C12.2257 135.195 12.2172 135.159 12.2008 135.115C12.1839 135.071 12.1698 135.038 12.1591 135.016C12.1321 133.937 11.8653 133.248 11.3584 132.951C10.8526 132.654 10.0136 132.486 8.8407 132.447V131.365Z" fill="#0B0B0C" stroke="#0B0B0C" stroke-width="1.2" stroke-miterlimit="10"/>
<path d="M45.5538 137.254L34.3371 150.105C34.3371 150.931 34.4601 151.533 34.7082 151.91C34.9557 152.287 35.2923 152.524 35.7198 152.619C36.1449 152.716 36.8097 152.781 37.7125 152.814V153.896H27.5684V152.814C28.4931 152.781 29.1664 152.716 29.5904 152.619C30.0145 152.524 30.3477 152.288 30.5896 151.914C30.831 151.54 30.9522 150.936 30.9522 150.105V135.09C30.9522 134.264 30.8276 133.663 30.5772 133.286C30.3268 132.909 29.9885 132.672 29.5622 132.576C29.1359 132.479 28.4711 132.415 27.5684 132.381V131.3H37.7125V132.381C36.5842 132.381 35.7068 132.538 35.0792 132.852C34.76 133.023 34.5565 133.294 34.4685 133.666C34.3806 134.037 34.3371 134.513 34.3371 135.09V148.073L45.5538 135.09C45.5538 134.314 45.4297 133.735 45.1822 133.352C44.9346 132.969 44.585 132.718 44.1339 132.6C43.6828 132.482 43.0304 132.409 42.1778 132.381V131.3H52.3214V132.381C51.1384 132.381 50.2587 132.538 49.6802 132.852C49.3616 133.023 49.1581 133.294 49.0701 133.666C48.981 134.037 48.9376 134.513 48.9376 135.09V150.105C48.9376 150.958 49.0701 151.575 49.334 151.955C49.5979 152.335 49.9362 152.565 50.349 152.644C50.7617 152.724 51.4192 152.781 52.3214 152.814V153.896H42.1778V152.814C43.053 152.786 43.7133 152.715 44.1587 152.599C44.6042 152.483 44.9482 152.235 45.1906 151.856C45.4325 151.476 45.5538 150.892 45.5538 150.105V137.254Z" fill="#0B0B0C"/>
<path d="M45.5538 137.254L34.3371 150.105C34.3371 150.931 34.4601 151.533 34.7082 151.91C34.9557 152.287 35.2923 152.524 35.7198 152.619C36.1449 152.716 36.8097 152.781 37.7125 152.814V153.896H27.5684V152.814C28.4931 152.781 29.1664 152.716 29.5904 152.619C30.0145 152.524 30.3477 152.288 30.5896 151.914C30.831 151.54 30.9522 150.936 30.9522 150.105V135.09C30.9522 134.264 30.8276 133.663 30.5772 133.286C30.3268 132.909 29.9885 132.672 29.5622 132.576C29.1359 132.479 28.4711 132.415 27.5684 132.381V131.3H37.7125V132.381C36.5842 132.381 35.7068 132.538 35.0792 132.852C34.76 133.023 34.5565 133.294 34.4685 133.666C34.3806 134.037 34.3371 134.513 34.3371 135.09V148.073L45.5538 135.09C45.5538 134.314 45.4297 133.735 45.1822 133.352C44.9346 132.969 44.585 132.718 44.1339 132.6C43.6828 132.482 43.0304 132.409 42.1778 132.381V131.3H52.3214V132.381C51.1384 132.381 50.2587 132.538 49.6802 132.852C49.3616 133.023 49.1581 133.294 49.0701 133.666C48.981 134.037 48.9376 134.513 48.9376 135.09V150.105C48.9376 150.958 49.0701 151.575 49.334 151.955C49.5979 152.335 49.9362 152.565 50.349 152.644C50.7617 152.724 51.4192 152.781 52.3214 152.814V153.896H42.1778V152.814C43.053 152.786 43.7133 152.715 44.1587 152.599C44.6042 152.483 44.9482 152.235 45.1906 151.856C45.4325 151.476 45.5538 150.892 45.5538 150.105V137.254Z" fill="#0B0B0C" stroke="#0B0B0C" stroke-width="1.2" stroke-miterlimit="10"/>
<path d="M71.3145 142.664H60.0979V150.105C60.0979 150.931 60.2219 151.533 60.4695 151.91C60.717 152.287 61.0536 152.524 61.4805 152.619C61.9068 152.716 62.5716 152.781 63.4744 152.814V153.896H53.3291V152.814C54.2539 152.781 54.9277 152.716 55.3517 152.619C55.7758 152.524 56.109 152.288 56.3509 151.914C56.5923 151.54 56.7135 150.936 56.7135 150.105V135.09C56.7135 134.264 56.5883 133.663 56.3379 133.286C56.0876 132.909 55.7493 132.672 55.323 132.576C54.8967 132.479 54.2324 132.415 53.3291 132.381V131.3H63.4744V132.381C62.3461 132.381 61.4681 132.538 60.8399 132.852C60.5219 133.023 60.3178 133.294 60.2304 133.666C60.1419 134.037 60.0979 134.513 60.0979 135.09V141.243H71.3145V135.09C71.3145 134.314 71.1916 133.735 70.9441 133.352C70.6959 132.969 70.3463 132.718 69.8958 132.6C69.4441 132.482 68.7923 132.409 67.9391 132.381V131.3H78.0833V132.381C76.8991 132.381 76.0195 132.538 75.4421 132.852C75.1229 133.023 74.9188 133.294 74.8308 133.666C74.7423 134.037 74.6995 134.513 74.6995 135.09V150.105C74.6995 150.958 74.8308 151.575 75.0947 151.955C75.3586 152.335 75.6981 152.565 76.1097 152.644C76.5236 152.724 77.1805 152.781 78.0833 152.814V153.896H67.9391V152.814C68.8143 152.786 69.474 152.715 69.9206 152.599C70.3661 152.483 70.7095 152.235 70.9525 151.856C71.1944 151.476 71.3145 150.892 71.3145 150.105V142.664Z" fill="#0B0B0C"/>
<path d="M71.3145 142.664H60.0979V150.105C60.0979 150.931 60.2219 151.533 60.4695 151.91C60.717 152.287 61.0536 152.524 61.4805 152.619C61.9068 152.716 62.5716 152.781 63.4744 152.814V153.896H53.3291V152.814C54.2539 152.781 54.9277 152.716 55.3517 152.619C55.7758 152.524 56.109 152.288 56.3509 151.914C56.5923 151.54 56.7135 150.936 56.7135 150.105V135.09C56.7135 134.264 56.5883 133.663 56.3379 133.286C56.0876 132.909 55.7493 132.672 55.323 132.576C54.8967 132.479 54.2324 132.415 53.3291 132.381V131.3H63.4744V132.381C62.3461 132.381 61.4681 132.538 60.8399 132.852C60.5219 133.023 60.3178 133.294 60.2304 133.666C60.1419 134.037 60.0979 134.513 60.0979 135.09V141.243H71.3145V135.09C71.3145 134.314 71.1916 133.735 70.9441 133.352C70.6959 132.969 70.3463 132.718 69.8958 132.6C69.4441 132.482 68.7923 132.409 67.9391 132.381V131.3H78.0833V132.381C76.8991 132.381 76.0195 132.538 75.4421 132.852C75.1229 133.023 74.9188 133.294 74.8308 133.666C74.7423 134.037 74.6995 134.513 74.6995 135.09V150.105C74.6995 150.958 74.8308 151.575 75.0947 151.955C75.3586 152.335 75.6981 152.565 76.1097 152.644C76.5236 152.724 77.1805 152.781 78.0833 152.814V153.896H67.9391V152.814C68.8143 152.786 69.474 152.715 69.9206 152.599C70.3661 152.483 70.7095 152.235 70.9525 151.856C71.1944 151.476 71.3145 150.892 71.3145 150.105V142.664Z" fill="#0B0B0C" stroke="#0B0B0C" stroke-width="1.2" stroke-miterlimit="10"/>
<path d="M93.8315 144.828L90.9264 137.659C90.3874 136.244 90.0699 135.341 89.9769 134.95C89.9002 135.104 89.8088 135.377 89.7039 135.767L86.0557 144.828H93.8315ZM91.536 130.961L100.055 150.584C100.406 151.361 100.822 151.926 101.301 152.282C101.78 152.636 102.423 152.814 103.232 152.814V153.896H93.8975V152.814H94.6486C95.9522 152.814 96.6047 152.476 96.6047 151.799C96.6047 151.512 96.5139 151.107 96.3329 150.584L94.5082 146.248H85.52L83.7618 150.584C83.5802 151.025 83.49 151.338 83.49 151.526C83.49 152.384 84.1881 152.814 85.5859 152.814H86.3286V153.896H78.4873V152.814C79.5215 152.814 80.3103 152.662 80.8522 152.359C81.3947 152.057 81.8441 151.465 82.201 150.584L90.3152 130.961H91.536Z" fill="#0B0B0C"/>
<path d="M93.8315 144.828L90.9264 137.659C90.3874 136.244 90.0699 135.341 89.9769 134.95C89.9002 135.104 89.8088 135.377 89.7039 135.767L86.0557 144.828H93.8315ZM91.536 130.961L100.055 150.584C100.406 151.361 100.822 151.926 101.301 152.282C101.78 152.636 102.423 152.814 103.232 152.814V153.896H93.8975V152.814H94.6486C95.9522 152.814 96.6047 152.476 96.6047 151.799C96.6047 151.512 96.5139 151.107 96.3329 150.584L94.5082 146.248H85.52L83.7618 150.584C83.5802 151.025 83.49 151.338 83.49 151.526C83.49 152.384 84.1881 152.814 85.5859 152.814H86.3286V153.896H78.4873V152.814C79.5215 152.814 80.3103 152.662 80.8522 152.359C81.3947 152.057 81.8441 151.465 82.201 150.584L90.3152 130.961H91.536Z" fill="#0B0B0C" stroke="#0B0B0C" stroke-width="1.2" stroke-miterlimit="10"/>
<path d="M121.819 142.664H110.603V150.105C110.603 150.931 110.727 151.533 110.974 151.91C111.221 152.287 111.558 152.524 111.985 152.619C112.412 152.716 113.076 152.781 113.979 152.814V153.896H103.834V152.814C104.759 152.781 105.432 152.716 105.857 152.619C106.28 152.524 106.613 152.288 106.855 151.914C107.097 151.54 107.218 150.936 107.218 150.105V135.09C107.218 134.264 107.094 133.663 106.843 133.286C106.593 132.909 106.254 132.672 105.828 132.576C105.402 132.479 104.737 132.415 103.834 132.381V131.3H113.979V132.381C112.85 132.381 111.972 132.538 111.345 132.852C111.027 133.023 110.822 133.294 110.735 133.666C110.646 134.037 110.603 134.513 110.603 135.09V141.243H121.819V135.09C121.819 134.314 121.696 133.735 121.448 133.352C121.2 132.969 120.851 132.718 120.401 132.6C119.948 132.482 119.297 132.409 118.443 132.381V131.3H128.588V132.381C127.404 132.381 126.524 132.538 125.947 132.852C125.627 133.023 125.424 133.294 125.336 133.666C125.247 134.037 125.204 134.513 125.204 135.09V150.105C125.204 150.958 125.336 151.575 125.6 151.955C125.864 152.335 126.202 152.565 126.615 152.644C127.028 152.724 127.685 152.781 128.588 152.814V153.896H118.443V152.814C119.319 152.786 119.979 152.715 120.425 152.599C120.87 152.483 121.214 152.235 121.457 151.856C121.699 151.476 121.819 150.892 121.819 150.105V142.664Z" fill="#0B0B0C"/>
<path d="M121.819 142.664H110.603V150.105C110.603 150.931 110.727 151.533 110.974 151.91C111.221 152.287 111.558 152.524 111.985 152.619C112.412 152.716 113.076 152.781 113.979 152.814V153.896H103.834V152.814C104.759 152.781 105.432 152.716 105.857 152.619C106.28 152.524 106.613 152.288 106.855 151.914C107.097 151.54 107.218 150.936 107.218 150.105V135.09C107.218 134.264 107.094 133.663 106.843 133.286C106.593 132.909 106.254 132.672 105.828 132.576C105.402 132.479 104.737 132.415 103.834 132.381V131.3H113.979V132.381C112.85 132.381 111.972 132.538 111.345 132.852C111.027 133.023 110.822 133.294 110.735 133.666C110.646 134.037 110.603 134.513 110.603 135.09V141.243H121.819V135.09C121.819 134.314 121.696 133.735 121.448 133.352C121.2 132.969 120.851 132.718 120.401 132.6C119.948 132.482 119.297 132.409 118.443 132.381V131.3H128.588V132.381C127.404 132.381 126.524 132.538 125.947 132.852C125.627 133.023 125.424 133.294 125.336 133.666C125.247 134.037 125.204 134.513 125.204 135.09V150.105C125.204 150.958 125.336 151.575 125.6 151.955C125.864 152.335 126.202 152.565 126.615 152.644C127.028 152.724 127.685 152.781 128.588 152.814V153.896H118.443V152.814C119.319 152.786 119.979 152.715 120.425 152.599C120.87 152.483 121.214 152.235 121.457 151.856C121.699 151.476 121.819 150.892 121.819 150.105V142.664Z" fill="#0B0B0C" stroke="#0B0B0C" stroke-width="1.2" stroke-miterlimit="10"/>
<path d="M151.237 131.366L151.575 139.484H150.493C150.137 138.007 149.618 136.708 148.938 135.586C148.258 134.464 147.374 133.581 146.284 132.936C145.195 132.291 143.893 131.969 142.38 131.969C140.625 131.969 139.168 132.477 138.01 133.493C136.852 134.509 136.005 135.81 135.473 137.397C134.938 138.983 134.672 140.625 134.672 142.321C134.672 144.155 134.968 145.874 135.563 147.477C136.157 149.08 137.086 150.369 138.349 151.347C139.612 152.325 141.18 152.814 143.057 152.814C144.746 152.814 146.37 152.287 147.931 151.232C149.491 150.176 150.593 148.853 151.237 147.262L152.45 148.212C151.878 149.501 151.057 150.621 149.987 151.575C148.916 152.527 147.697 153.254 146.329 153.755C144.963 154.256 143.577 154.507 142.175 154.507C140.524 154.507 138.995 154.218 137.589 153.64C136.183 153.062 134.976 152.249 133.966 151.203C132.956 150.157 132.179 148.919 131.634 147.491C131.089 146.062 130.816 144.522 130.816 142.87C130.816 141.241 131.089 139.693 131.634 138.229C132.179 136.764 132.96 135.469 133.978 134.343C134.996 133.217 136.213 132.337 137.63 131.704C139.048 131.071 140.584 130.755 142.24 130.755C144.875 130.755 147.31 131.52 149.545 133.051C149.749 132.722 149.996 132.16 150.288 131.366H151.237Z" fill="#0B0B0C"/>
<path d="M151.237 131.366L151.575 139.484H150.493C150.137 138.007 149.618 136.708 148.938 135.586C148.258 134.464 147.374 133.581 146.284 132.936C145.195 132.291 143.893 131.969 142.38 131.969C140.625 131.969 139.168 132.477 138.01 133.493C136.852 134.509 136.005 135.81 135.473 137.397C134.938 138.983 134.672 140.625 134.672 142.321C134.672 144.155 134.968 145.874 135.563 147.477C136.157 149.08 137.086 150.369 138.349 151.347C139.612 152.325 141.18 152.814 143.057 152.814C144.746 152.814 146.37 152.287 147.931 151.232C149.491 150.176 150.593 148.853 151.237 147.262L152.45 148.212C151.878 149.501 151.057 150.621 149.987 151.575C148.916 152.527 147.697 153.254 146.329 153.755C144.963 154.256 143.577 154.507 142.175 154.507C140.524 154.507 138.995 154.218 137.589 153.64C136.183 153.062 134.976 152.249 133.966 151.203C132.956 150.157 132.179 148.919 131.634 147.491C131.089 146.062 130.816 144.522 130.816 142.87C130.816 141.241 131.089 139.693 131.634 138.229C132.179 136.764 132.96 135.469 133.978 134.343C134.996 133.217 136.213 132.337 137.63 131.704C139.048 131.071 140.584 130.755 142.24 130.755C144.875 130.755 147.31 131.52 149.545 133.051C149.749 132.722 149.996 132.16 150.288 131.366H151.237Z" fill="#0B0B0C" stroke="#0B0B0C" stroke-width="1.2" stroke-miterlimit="10"/>
<path d="M165.974 153.293C167.934 153.293 169.518 152.789 170.726 151.781C171.934 150.773 172.798 149.468 173.315 147.865C173.833 146.262 174.091 144.508 174.091 142.601C174.091 141.181 173.952 139.84 173.674 138.578C173.396 137.317 172.946 136.178 172.324 135.162C171.702 134.146 170.862 133.338 169.806 132.737C168.748 132.136 167.471 131.836 165.974 131.836C164.493 131.836 163.23 132.136 162.188 132.737C161.144 133.338 160.312 134.146 159.693 135.162C159.073 136.178 158.625 137.318 158.348 138.582C158.069 139.847 157.93 141.186 157.93 142.601C157.93 144.519 158.187 146.279 158.698 147.885C159.21 149.491 160.066 150.793 161.266 151.794C162.466 152.793 164.035 153.293 165.974 153.293ZM165.974 154.506C163.751 154.506 161.726 153.993 159.897 152.967C158.068 151.94 156.63 150.516 155.581 148.697C154.533 146.877 154.01 144.844 154.01 142.598C154.01 140.329 154.529 138.291 155.564 136.482C156.602 134.674 158.034 133.266 159.86 132.262C161.686 131.257 163.724 130.754 165.974 130.754C168.251 130.754 170.307 131.257 172.141 132.262C173.976 133.266 175.413 134.674 176.453 136.482C177.492 138.291 178.012 140.329 178.012 142.598C178.012 144.85 177.487 146.885 176.436 148.705C175.385 150.525 173.939 151.947 172.096 152.971C170.253 153.995 168.213 154.506 165.974 154.506Z" fill="#0B0B0C"/>
<path d="M165.974 153.293C167.934 153.293 169.518 152.789 170.726 151.781C171.934 150.773 172.798 149.468 173.315 147.865C173.833 146.262 174.091 144.508 174.091 142.601C174.091 141.181 173.952 139.84 173.674 138.578C173.396 137.317 172.946 136.178 172.324 135.162C171.702 134.146 170.862 133.338 169.806 132.737C168.748 132.136 167.471 131.836 165.974 131.836C164.493 131.836 163.23 132.136 162.188 132.737C161.144 133.338 160.312 134.146 159.693 135.162C159.073 136.178 158.625 137.318 158.348 138.582C158.069 139.847 157.93 141.186 157.93 142.601C157.93 144.519 158.187 146.279 158.698 147.885C159.21 149.491 160.066 150.793 161.266 151.794C162.466 152.793 164.035 153.293 165.974 153.293ZM165.974 154.506C163.751 154.506 161.726 153.993 159.897 152.967C158.068 151.94 156.63 150.516 155.581 148.697C154.533 146.877 154.01 144.844 154.01 142.598C154.01 140.329 154.529 138.291 155.564 136.482C156.602 134.674 158.034 133.266 159.86 132.262C161.686 131.257 163.724 130.754 165.974 130.754C168.251 130.754 170.307 131.257 172.141 132.262C173.976 133.266 175.413 134.674 176.453 136.482C177.492 138.291 178.012 140.329 178.012 142.598C178.012 144.85 177.487 146.885 176.436 148.705C175.385 150.525 173.939 151.947 172.096 152.971C170.253 153.995 168.213 154.506 165.974 154.506Z" fill="#0B0B0C" stroke="#0B0B0C" stroke-width="1.2" stroke-miterlimit="10"/>
<path d="M186.53 142.325V150.105C186.53 151.113 186.809 151.794 187.367 152.149C187.926 152.504 188.749 152.682 189.838 152.682C191.358 152.682 192.448 152.184 193.107 151.187C193.768 150.19 194.097 148.883 194.097 147.265C194.097 145.734 193.765 144.609 193.099 143.891C192.434 143.171 191.6 142.731 190.602 142.569C189.604 142.406 188.246 142.325 186.53 142.325ZM186.53 141.243C187.987 141.243 189.157 141.162 190.037 141C190.917 140.838 191.634 140.438 192.187 139.802C192.741 139.166 193.016 138.182 193.016 136.849C193.016 135.385 192.734 134.285 192.171 133.55C191.607 132.815 190.626 132.447 189.229 132.447H186.53V141.243ZM190.714 141.648C191.974 141.703 193.155 141.96 194.255 142.421C195.355 142.879 196.246 143.561 196.929 144.464C197.611 145.367 197.952 146.461 197.952 147.743C197.952 148.96 197.652 150.038 197.052 150.977C196.454 151.915 195.64 152.636 194.614 153.14C193.588 153.644 192.469 153.896 191.259 153.896H179.761V152.814C180.686 152.78 181.36 152.717 181.783 152.62C182.207 152.523 182.54 152.288 182.783 151.914C183.024 151.54 183.145 150.937 183.145 150.105V135.09C183.145 134.259 183.024 133.656 182.783 133.282C182.54 132.908 182.207 132.672 181.783 132.575C181.36 132.479 180.686 132.414 179.761 132.382V131.299H190.714C191.754 131.299 192.737 131.487 193.665 131.861C194.591 132.236 195.337 132.802 195.897 133.559C196.459 134.315 196.74 135.231 196.74 136.304C196.74 137.956 196.181 139.201 195.064 140.037C193.946 140.875 192.496 141.411 190.714 141.648Z" fill="#0B0B0C"/>
<path d="M186.53 142.325V150.105C186.53 151.113 186.809 151.794 187.367 152.149C187.926 152.504 188.749 152.682 189.838 152.682C191.358 152.682 192.448 152.184 193.107 151.187C193.768 150.19 194.097 148.883 194.097 147.265C194.097 145.734 193.765 144.609 193.099 143.891C192.434 143.171 191.6 142.731 190.602 142.569C189.604 142.406 188.246 142.325 186.53 142.325ZM186.53 141.243C187.987 141.243 189.157 141.162 190.037 141C190.917 140.838 191.634 140.438 192.187 139.802C192.741 139.166 193.016 138.182 193.016 136.849C193.016 135.385 192.734 134.285 192.171 133.55C191.607 132.815 190.626 132.447 189.229 132.447H186.53V141.243ZM190.714 141.648C191.974 141.703 193.155 141.96 194.255 142.421C195.355 142.879 196.246 143.561 196.929 144.464C197.611 145.367 197.952 146.461 197.952 147.743C197.952 148.96 197.652 150.038 197.052 150.977C196.454 151.915 195.64 152.636 194.614 153.14C193.588 153.644 192.469 153.896 191.259 153.896H179.761V152.814C180.686 152.78 181.36 152.717 181.783 152.62C182.207 152.523 182.54 152.288 182.783 151.914C183.024 151.54 183.145 150.937 183.145 150.105V135.09C183.145 134.259 183.024 133.656 182.783 133.282C182.54 132.908 182.207 132.672 181.783 132.575C181.36 132.479 180.686 132.414 179.761 132.382V131.299H190.714C191.754 131.299 192.737 131.487 193.665 131.861C194.591 132.236 195.337 132.802 195.897 133.559C196.459 134.315 196.74 135.231 196.74 136.304C196.74 137.956 196.181 139.201 195.064 140.037C193.946 140.875 192.496 141.411 190.714 141.648Z" fill="#0B0B0C" stroke="#0B0B0C" stroke-width="1.2" stroke-miterlimit="10"/>
<path d="M229.729 153.962H219.586V152.873C220.508 152.841 221.18 152.775 221.603 152.679C222.026 152.582 222.358 152.348 222.599 151.973C222.84 151.599 222.962 150.996 222.962 150.165V135.156C222.962 134.33 222.84 133.728 222.599 133.352C222.358 132.975 222.026 132.738 221.603 132.642C221.18 132.546 220.508 132.48 219.586 132.447V131.365H229.729V132.447C228.596 132.447 227.741 132.605 227.163 132.918C226.805 133.1 226.58 133.375 226.485 133.744C226.393 134.113 226.346 134.583 226.346 135.156V150.165C226.346 150.991 226.471 151.591 226.722 151.97C226.972 152.346 227.31 152.582 227.737 152.679C228.163 152.775 228.827 152.841 229.729 152.873V153.962ZM207.015 142.391V150.099C207.015 151.106 207.295 151.787 207.853 152.142C208.411 152.496 209.236 152.674 210.325 152.674C211.843 152.674 212.934 152.175 213.593 151.18C214.254 150.184 214.584 148.878 214.584 147.26C214.584 145.83 214.302 144.759 213.739 144.046C213.174 143.333 212.441 142.88 211.538 142.684C210.636 142.489 209.488 142.391 208.096 142.391H207.015ZM207.015 135.09V141.243C207.946 141.243 208.605 141.239 208.996 141.231C209.386 141.223 209.694 141.211 209.916 141.198C210.14 141.184 210.32 141.177 210.457 141.177C212.08 141.177 213.489 141.449 214.684 141.991C215.877 142.534 216.795 143.3 217.436 144.29C218.077 145.281 218.411 146.432 218.439 147.743C218.439 148.96 218.139 150.038 217.539 150.976C216.94 151.915 216.126 152.636 215.1 153.141C214.073 153.644 212.955 153.896 211.745 153.896H200.247V152.807C201.172 152.774 201.846 152.709 202.27 152.613C202.693 152.516 203.026 152.281 203.268 151.907C203.51 151.532 203.631 150.93 203.631 150.099V135.089C203.631 134.258 203.51 133.655 203.268 133.282C203.026 132.908 202.693 132.671 202.27 132.575C201.846 132.48 201.172 132.414 200.247 132.382V131.3H210.392V132.382C209.258 132.382 208.402 132.538 207.824 132.852C207.471 133.023 207.249 133.294 207.156 133.666C207.061 134.038 207.015 134.512 207.015 135.09Z" fill="#0B0B0C"/>
<path d="M229.729 153.962H219.586V152.873C220.508 152.841 221.18 152.775 221.603 152.679C222.026 152.582 222.358 152.348 222.599 151.973C222.84 151.599 222.962 150.996 222.962 150.165V135.156C222.962 134.33 222.84 133.728 222.599 133.352C222.358 132.975 222.026 132.738 221.603 132.642C221.18 132.546 220.508 132.48 219.586 132.447V131.365H229.729V132.447C228.596 132.447 227.741 132.605 227.163 132.918C226.805 133.1 226.58 133.375 226.485 133.744C226.393 134.113 226.346 134.583 226.346 135.156V150.165C226.346 150.991 226.471 151.591 226.722 151.97C226.972 152.346 227.31 152.582 227.737 152.679C228.163 152.775 228.827 152.841 229.729 152.873V153.962ZM207.015 142.391V150.099C207.015 151.106 207.295 151.787 207.853 152.142C208.411 152.496 209.236 152.674 210.325 152.674C211.843 152.674 212.934 152.175 213.593 151.18C214.254 150.184 214.584 148.878 214.584 147.26C214.584 145.83 214.302 144.759 213.739 144.046C213.174 143.333 212.441 142.88 211.538 142.684C210.636 142.489 209.488 142.391 208.096 142.391H207.015ZM207.015 135.09V141.243C207.946 141.243 208.605 141.239 208.996 141.231C209.386 141.223 209.694 141.211 209.916 141.198C210.14 141.184 210.32 141.177 210.457 141.177C212.08 141.177 213.489 141.449 214.684 141.991C215.877 142.534 216.795 143.3 217.436 144.29C218.077 145.281 218.411 146.432 218.439 147.743C218.439 148.96 218.139 150.038 217.539 150.976C216.94 151.915 216.126 152.636 215.1 153.141C214.073 153.644 212.955 153.896 211.745 153.896H200.247V152.807C201.172 152.774 201.846 152.709 202.27 152.613C202.693 152.516 203.026 152.281 203.268 151.907C203.51 151.532 203.631 150.93 203.631 150.099V135.089C203.631 134.258 203.51 133.655 203.268 133.282C203.026 132.908 202.693 132.671 202.27 132.575C201.846 132.48 201.172 132.414 200.247 132.382V131.3H210.392V132.382C209.258 132.382 208.402 132.538 207.824 132.852C207.471 133.023 207.249 133.294 207.156 133.666C207.061 134.038 207.015 134.512 207.015 135.09Z" fill="#0B0B0C" stroke="#0B0B0C" stroke-width="1.2" stroke-miterlimit="10"/>
<path d="M243.86 127.104C244.537 127.104 245.202 127.006 245.854 126.811C246.506 126.616 246.831 126.283 246.831 125.816C246.7 125.138 246.633 124.687 246.633 124.461C246.633 124.032 246.792 123.652 247.109 123.322C247.425 122.991 247.806 122.809 248.252 122.776H248.392C248.678 122.776 248.972 122.841 249.274 122.97C249.578 123.1 249.8 123.237 249.944 123.379C250.257 123.748 250.413 124.246 250.413 124.874C250.392 125.816 249.993 126.548 249.217 127.071C248.441 127.595 247.554 127.945 246.555 128.124C245.557 128.303 244.637 128.392 243.795 128.392C242.964 128.392 242.057 128.303 241.075 128.124C240.092 127.945 239.223 127.595 238.466 127.071C237.71 126.548 237.32 125.816 237.299 124.874C237.299 124.246 237.458 123.748 237.777 123.379C238.179 122.978 238.675 122.776 239.263 122.776H239.461C239.912 122.809 240.295 122.99 240.612 123.317C240.929 123.645 241.087 124.026 241.087 124.461C241.087 124.737 241.018 125.188 240.881 125.816C240.881 126.283 241.207 126.616 241.858 126.811C242.511 127.006 243.178 127.104 243.86 127.104ZM248.994 137.254L237.777 150.105C237.777 150.931 237.902 151.532 238.149 151.909C238.396 152.286 238.733 152.523 239.16 152.62C239.586 152.716 240.25 152.78 241.154 152.814V153.895H231.009V152.814C231.934 152.78 232.607 152.716 233.031 152.62C233.454 152.523 233.788 152.288 234.029 151.914C234.272 151.539 234.394 150.936 234.394 150.105V135.09C234.394 134.264 234.268 133.663 234.018 133.286C233.767 132.909 233.429 132.673 233.003 132.576C232.576 132.479 231.912 132.414 231.009 132.381V131.3H241.154V132.381C240.026 132.381 239.147 132.538 238.52 132.852C238.202 133.023 237.997 133.294 237.91 133.666C237.821 134.037 237.777 134.513 237.777 135.09V148.072L248.994 135.09C248.994 134.314 248.871 133.735 248.623 133.352C248.376 132.969 248.026 132.718 247.575 132.6C247.123 132.482 246.472 132.409 245.618 132.381V131.3H255.762V132.381C254.579 132.381 253.699 132.538 253.121 132.852C252.802 133.023 252.599 133.294 252.511 133.666C252.422 134.037 252.379 134.513 252.379 135.09V150.105C252.379 150.958 252.511 151.575 252.774 151.954C253.038 152.335 253.377 152.565 253.789 152.644C254.203 152.725 254.859 152.78 255.762 152.814V153.895H245.618V152.814C246.493 152.787 247.154 152.715 247.6 152.599C248.045 152.484 248.388 152.236 248.631 151.856C248.873 151.476 248.994 150.892 248.994 150.105V137.254Z" fill="#0B0B0C"/>
<path d="M243.86 127.104C244.537 127.104 245.202 127.006 245.854 126.811C246.506 126.616 246.831 126.283 246.831 125.816C246.7 125.138 246.633 124.687 246.633 124.461C246.633 124.032 246.792 123.652 247.109 123.322C247.425 122.991 247.806 122.809 248.252 122.776H248.392C248.678 122.776 248.972 122.841 249.274 122.97C249.578 123.1 249.8 123.237 249.944 123.379C250.257 123.748 250.413 124.246 250.413 124.874C250.392 125.816 249.993 126.548 249.217 127.071C248.441 127.595 247.554 127.945 246.555 128.124C245.557 128.303 244.637 128.392 243.795 128.392C242.964 128.392 242.057 128.303 241.075 128.124C240.092 127.945 239.223 127.595 238.466 127.071C237.71 126.548 237.32 125.816 237.299 124.874C237.299 124.246 237.458 123.748 237.777 123.379C238.179 122.978 238.675 122.776 239.263 122.776H239.461C239.912 122.809 240.295 122.99 240.612 123.317C240.929 123.645 241.087 124.026 241.087 124.461C241.087 124.737 241.018 125.188 240.881 125.816C240.881 126.283 241.207 126.616 241.858 126.811C242.511 127.006 243.178 127.104 243.86 127.104ZM248.994 137.254L237.777 150.105C237.777 150.931 237.902 151.532 238.149 151.909C238.396 152.286 238.733 152.523 239.16 152.62C239.586 152.716 240.25 152.78 241.154 152.814V153.895H231.009V152.814C231.934 152.78 232.607 152.716 233.031 152.62C233.454 152.523 233.788 152.288 234.029 151.914C234.272 151.539 234.394 150.936 234.394 150.105V135.09C234.394 134.264 234.268 133.663 234.018 133.286C233.767 132.909 233.429 132.673 233.003 132.576C232.576 132.479 231.912 132.414 231.009 132.381V131.3H241.154V132.381C240.026 132.381 239.147 132.538 238.52 132.852C238.202 133.023 237.997 133.294 237.91 133.666C237.821 134.037 237.777 134.513 237.777 135.09V148.072L248.994 135.09C248.994 134.314 248.871 133.735 248.623 133.352C248.376 132.969 248.026 132.718 247.575 132.6C247.123 132.482 246.472 132.409 245.618 132.381V131.3H255.762V132.381C254.579 132.381 253.699 132.538 253.121 132.852C252.802 133.023 252.599 133.294 252.511 133.666C252.422 134.037 252.379 134.513 252.379 135.09V150.105C252.379 150.958 252.511 151.575 252.774 151.954C253.038 152.335 253.377 152.565 253.789 152.644C254.203 152.725 254.859 152.78 255.762 152.814V153.895H245.618V152.814C246.493 152.787 247.154 152.715 247.6 152.599C248.045 152.484 248.388 152.236 248.631 151.856C248.873 151.476 248.994 150.892 248.994 150.105V137.254Z" fill="#0B0B0C" stroke="#0B0B0C" stroke-width="1.2" stroke-miterlimit="10"/>
<path d="M13.8209 182.392C13.8434 182.392 13.5891 182.806 13.0591 183.636C12.7721 183.953 12.4726 184.228 12.1625 184.462C11.8518 184.697 11.6201 184.861 11.4684 184.958C10.9885 185.189 10.388 185.305 9.66622 185.305C8.94897 185.305 8.34844 185.141 7.8635 184.813C7.72817 184.746 7.53195 184.52 7.27538 184.136C7.01825 183.752 6.8897 183.355 6.8897 182.942C6.8897 182.524 7.05039 182.11 7.37237 181.697C7.64923 181.279 8.0665 181.071 8.62474 181.071C8.80518 181.071 9.08204 181.116 9.4542 181.206C9.42544 181.206 9.57826 181.333 9.91151 181.588C10.2436 181.841 10.5769 181.968 10.9096 181.968C10.9722 181.968 11.072 181.981 11.2107 182.006C11.3488 182.031 11.4571 182.045 11.536 182.045C11.8631 182.045 12.1625 181.904 12.4332 181.622C12.6136 181.406 12.8594 181.045 13.169 180.537C13.4797 180.029 13.6517 179.721 13.6855 179.614L4.25808 165.321C3.95922 164.959 3.68405 164.628 3.43369 164.33C3.18164 164.03 2.95157 163.791 2.7435 163.61C2.53431 163.429 2.29071 163.288 2.01103 163.186C1.73191 163.085 1.39471 163.035 1 163.035V161.925H10.5622V163.035H9.80155C8.45896 163.035 7.78738 163.381 7.78738 164.075C7.78738 164.335 7.87986 164.75 8.0665 165.321L15.4206 176.702L20.9641 165.321C21.1496 164.84 21.2432 164.493 21.2432 164.279C21.2432 163.765 21.034 163.429 20.6167 163.271C20.1994 163.113 19.6694 163.035 19.026 163.035H18.3319V161.925H26.3034V163.035H26.0237C24.3941 163.22 23.2376 163.982 22.5542 165.321L13.8209 182.392Z" fill="#0B0B0C"/>
<path d="M13.8209 182.392C13.8434 182.392 13.5891 182.806 13.0591 183.636C12.7721 183.953 12.4726 184.228 12.1625 184.462C11.8518 184.697 11.6201 184.861 11.4684 184.958C10.9885 185.189 10.388 185.305 9.66622 185.305C8.94897 185.305 8.34844 185.141 7.8635 184.813C7.72817 184.746 7.53195 184.52 7.27538 184.136C7.01825 183.752 6.8897 183.355 6.8897 182.942C6.8897 182.524 7.05039 182.11 7.37237 181.697C7.64923 181.279 8.0665 181.071 8.62474 181.071C8.80518 181.071 9.08204 181.116 9.4542 181.206C9.42544 181.206 9.57826 181.333 9.91151 181.588C10.2436 181.841 10.5769 181.968 10.9096 181.968C10.9722 181.968 11.072 181.981 11.2107 182.006C11.3488 182.031 11.4571 182.045 11.536 182.045C11.8631 182.045 12.1625 181.904 12.4332 181.622C12.6136 181.406 12.8594 181.045 13.169 180.537C13.4797 180.029 13.6517 179.721 13.6855 179.614L4.25808 165.321C3.95922 164.959 3.68405 164.628 3.43369 164.33C3.18164 164.03 2.95157 163.791 2.7435 163.61C2.53431 163.429 2.29071 163.288 2.01103 163.186C1.73191 163.085 1.39471 163.035 1 163.035V161.925H10.5622V163.035H9.80155C8.45896 163.035 7.78738 163.381 7.78738 164.075C7.78738 164.335 7.87986 164.75 8.0665 165.321L15.4206 176.702L20.9641 165.321C21.1496 164.84 21.2432 164.493 21.2432 164.279C21.2432 163.765 21.034 163.429 20.6167 163.271C20.1994 163.113 19.6694 163.035 19.026 163.035H18.3319V161.925H26.3034V163.035H26.0237C24.3941 163.22 23.2376 163.982 22.5542 165.321L13.8209 182.392Z" fill="#0B0B0C" stroke="#0B0B0C" stroke-width="1.2" stroke-miterlimit="10"/>
<path d="M45.4293 173.576H33.9279V181.206C33.9279 182.053 34.0548 182.67 34.3091 183.057C34.5634 183.443 34.9091 183.686 35.3461 183.784C35.7825 183.884 36.4648 183.95 37.3901 183.983V185.093H26.9883V183.983C27.9367 183.95 28.6275 183.884 29.0628 183.784C29.4964 183.686 29.8381 183.445 30.0862 183.06C30.3343 182.677 30.4584 182.058 30.4584 181.206V165.811C30.4584 164.965 30.3304 164.348 30.0733 163.962C29.8167 163.574 29.4693 163.332 29.0329 163.233C28.5953 163.134 27.9142 163.068 26.9883 163.034V161.925H37.3901V163.034C36.2331 163.034 35.3331 163.195 34.6903 163.517C34.3627 163.691 34.154 163.969 34.0638 164.351C33.973 164.732 33.9279 165.219 33.9279 165.811V172.12H45.4293V165.811C45.4293 165.015 45.3024 164.421 45.0481 164.029C44.7944 163.637 44.4363 163.38 43.9739 163.258C43.5116 163.137 42.8422 163.062 41.9682 163.034V161.925H52.3689V163.034C51.1555 163.034 50.2533 163.195 49.6606 163.517C49.3336 163.691 49.125 163.969 49.0347 164.351C48.9445 164.732 48.8994 165.219 48.8994 165.811V181.206C48.8994 182.081 49.0347 182.714 49.3054 183.103C49.5761 183.493 49.9234 183.728 50.3463 183.811C50.7692 183.892 51.4436 183.95 52.3689 183.983V185.093H41.9682V183.983C42.8648 183.955 43.5426 183.882 43.9988 183.763C44.4566 183.645 44.8085 183.391 45.0566 183.001C45.3052 182.611 45.4293 182.013 45.4293 181.206V173.576Z" fill="#0B0B0C"/>
<path d="M45.4293 173.576H33.9279V181.206C33.9279 182.053 34.0548 182.67 34.3091 183.057C34.5634 183.443 34.9091 183.686 35.3461 183.784C35.7825 183.884 36.4648 183.95 37.3901 183.983V185.093H26.9883V183.983C27.9367 183.95 28.6275 183.884 29.0628 183.784C29.4964 183.686 29.8381 183.445 30.0862 183.06C30.3343 182.677 30.4584 182.058 30.4584 181.206V165.811C30.4584 164.965 30.3304 164.348 30.0733 163.962C29.8167 163.574 29.4693 163.332 29.0329 163.233C28.5953 163.134 27.9142 163.068 26.9883 163.034V161.925H37.3901V163.034C36.2331 163.034 35.3331 163.195 34.6903 163.517C34.3627 163.691 34.154 163.969 34.0638 164.351C33.973 164.732 33.9279 165.219 33.9279 165.811V172.12H45.4293V165.811C45.4293 165.015 45.3024 164.421 45.0481 164.029C44.7944 163.637 44.4363 163.38 43.9739 163.258C43.5116 163.137 42.8422 163.062 41.9682 163.034V161.925H52.3689V163.034C51.1555 163.034 50.2533 163.195 49.6606 163.517C49.3336 163.691 49.125 163.969 49.0347 164.351C48.9445 164.732 48.8994 165.219 48.8994 165.811V181.206C48.8994 182.081 49.0347 182.714 49.3054 183.103C49.5761 183.493 49.9234 183.728 50.3463 183.811C50.7692 183.892 51.4436 183.95 52.3689 183.983V185.093H41.9682V183.983C42.8648 183.955 43.5426 183.882 43.9988 183.763C44.4566 183.645 44.8085 183.391 45.0566 183.001C45.3052 182.611 45.4293 182.013 45.4293 181.206V173.576Z" fill="#0B0B0C" stroke="#0B0B0C" stroke-width="1.2" stroke-miterlimit="10"/>
<path d="M71.8424 168.03L60.341 181.206C60.341 182.053 60.4679 182.669 60.7222 183.056C60.9765 183.443 61.3216 183.686 61.758 183.784C62.1956 183.884 62.8779 183.95 63.8026 183.984V185.093H53.4014V183.984C54.3487 183.95 55.0406 183.884 55.4753 183.784C55.9095 183.686 56.2501 183.445 56.4993 183.061C56.7474 182.677 56.8715 182.059 56.8715 181.206V165.812C56.8715 164.964 56.7429 164.348 56.4863 163.961C56.2292 163.575 55.8824 163.332 55.4449 163.233C55.0084 163.134 54.3261 163.068 53.4014 163.034V161.924H63.8026V163.034C62.6456 163.034 61.7456 163.195 61.1034 163.517C60.7757 163.691 60.5665 163.97 60.4763 164.351C60.3861 164.732 60.341 165.219 60.341 165.812V179.123L71.8424 165.812C71.8424 165.015 71.7155 164.421 71.4612 164.029C71.2075 163.636 70.8488 163.38 70.387 163.258C69.9241 163.137 69.2553 163.063 68.3802 163.034V161.924H78.7815V163.034C77.5686 163.034 76.6658 163.195 76.0737 163.517C75.7461 163.691 75.5369 163.97 75.4467 164.351C75.3565 164.732 75.3114 165.219 75.3114 165.812V181.206C75.3114 182.081 75.4467 182.713 75.7173 183.103C75.9891 183.493 76.3365 183.728 76.7594 183.81C77.1823 183.892 77.8567 183.95 78.7815 183.984V185.093H68.3802V183.984C69.2779 183.955 69.9557 183.882 70.4118 183.763C70.8691 183.645 71.2216 183.391 71.4697 183.001C71.7183 182.612 71.8424 182.014 71.8424 181.206V168.03Z" fill="#0B0B0C"/>
<path d="M71.8424 168.03L60.341 181.206C60.341 182.053 60.4679 182.669 60.7222 183.056C60.9765 183.443 61.3216 183.686 61.758 183.784C62.1956 183.884 62.8779 183.95 63.8026 183.984V185.093H53.4014V183.984C54.3487 183.95 55.0406 183.884 55.4753 183.784C55.9095 183.686 56.2501 183.445 56.4993 183.061C56.7474 182.677 56.8715 182.059 56.8715 181.206V165.812C56.8715 164.964 56.7429 164.348 56.4863 163.961C56.2292 163.575 55.8824 163.332 55.4449 163.233C55.0084 163.134 54.3261 163.068 53.4014 163.034V161.924H63.8026V163.034C62.6456 163.034 61.7456 163.195 61.1034 163.517C60.7757 163.691 60.5665 163.97 60.4763 164.351C60.3861 164.732 60.341 165.219 60.341 165.812V179.123L71.8424 165.812C71.8424 165.015 71.7155 164.421 71.4612 164.029C71.2075 163.636 70.8488 163.38 70.387 163.258C69.9241 163.137 69.2553 163.063 68.3802 163.034V161.924H78.7815V163.034C77.5686 163.034 76.6658 163.195 76.0737 163.517C75.7461 163.691 75.5369 163.97 75.4467 164.351C75.3565 164.732 75.3114 165.219 75.3114 165.812V181.206C75.3114 182.081 75.4467 182.713 75.7173 183.103C75.9891 183.493 76.3365 183.728 76.7594 183.81C77.1823 183.892 77.8567 183.95 78.7815 183.984V185.093H68.3802V183.984C69.2779 183.955 69.9557 183.882 70.4118 183.763C70.8691 183.645 71.2216 183.391 71.4697 183.001C71.7183 182.612 71.8424 182.014 71.8424 181.206V168.03Z" fill="#0B0B0C" stroke="#0B0B0C" stroke-width="1.2" stroke-miterlimit="10"/>
<path d="M86.7541 173.229V181.206C86.7541 182.239 87.0405 182.937 87.6134 183.302C88.1863 183.666 89.0305 183.848 90.1475 183.848C91.7049 183.848 92.822 183.337 93.4992 182.316C94.1758 181.294 94.5142 179.953 94.5142 178.293C94.5142 176.724 94.173 175.571 93.4913 174.834C92.8084 174.097 91.9542 173.645 90.9313 173.479C89.9062 173.313 88.5145 173.229 86.7541 173.229ZM86.7541 172.12C88.2495 172.12 89.4483 172.037 90.3516 171.87C91.2538 171.704 91.988 171.294 92.5552 170.642C93.1225 169.991 93.4061 168.981 93.4061 167.615C93.4061 166.113 93.1169 164.986 92.5383 164.232C91.9598 163.478 90.955 163.102 89.5222 163.102H86.7541V172.12ZM91.0452 172.535C92.337 172.591 93.5477 172.855 94.6754 173.327C95.8037 173.798 96.7172 174.497 97.4181 175.423C98.1173 176.348 98.4669 177.469 98.4669 178.784C98.4669 180.032 98.1591 181.138 97.545 182.1C96.9292 183.062 96.0953 183.801 95.0436 184.318C93.992 184.835 92.8451 185.093 91.6034 185.093H79.8145V183.984C80.7623 183.95 81.4536 183.883 81.8889 183.785C82.3226 183.686 82.6632 183.445 82.9118 183.061C83.1599 182.677 83.2851 182.058 83.2851 181.206V165.811C83.2851 164.959 83.1599 164.341 82.9118 163.956C82.6632 163.573 82.3226 163.331 81.8889 163.233C81.4536 163.134 80.7623 163.068 79.8145 163.034V161.925H91.0452C92.1115 161.925 93.1191 162.117 94.0709 162.501C95.0211 162.884 95.784 163.464 96.3592 164.24C96.9343 165.017 97.2225 165.955 97.2225 167.056C97.2225 168.749 96.6501 170.026 95.5043 170.883C94.3597 171.742 92.8721 172.293 91.0452 172.535Z" fill="#0B0B0C"/>
<path d="M86.7541 173.229V181.206C86.7541 182.239 87.0405 182.937 87.6134 183.302C88.1863 183.666 89.0305 183.848 90.1475 183.848C91.7049 183.848 92.822 183.337 93.4992 182.316C94.1758 181.294 94.5142 179.953 94.5142 178.293C94.5142 176.724 94.173 175.571 93.4913 174.834C92.8084 174.097 91.9542 173.645 90.9313 173.479C89.9062 173.313 88.5145 173.229 86.7541 173.229ZM86.7541 172.12C88.2495 172.12 89.4483 172.037 90.3516 171.87C91.2538 171.704 91.988 171.294 92.5552 170.642C93.1225 169.991 93.4061 168.981 93.4061 167.615C93.4061 166.113 93.1169 164.986 92.5383 164.232C91.9598 163.478 90.955 163.102 89.5222 163.102H86.7541V172.12ZM91.0452 172.535C92.337 172.591 93.5477 172.855 94.6754 173.327C95.8037 173.798 96.7172 174.497 97.4181 175.423C98.1173 176.348 98.4669 177.469 98.4669 178.784C98.4669 180.032 98.1591 181.138 97.545 182.1C96.9292 183.062 96.0953 183.801 95.0436 184.318C93.992 184.835 92.8451 185.093 91.6034 185.093H79.8145V183.984C80.7623 183.95 81.4536 183.883 81.8889 183.785C82.3226 183.686 82.6632 183.445 82.9118 183.061C83.1599 182.677 83.2851 182.058 83.2851 181.206V165.811C83.2851 164.959 83.1599 164.341 82.9118 163.956C82.6632 163.573 82.3226 163.331 81.8889 163.233C81.4536 163.134 80.7623 163.068 79.8145 163.034V161.925H91.0452C92.1115 161.925 93.1191 162.117 94.0709 162.501C95.0211 162.884 95.784 163.464 96.3592 164.24C96.9343 165.017 97.2225 165.955 97.2225 167.056C97.2225 168.749 96.6501 170.026 95.5043 170.883C94.3597 171.742 92.8721 172.293 91.0452 172.535Z" fill="#0B0B0C" stroke="#0B0B0C" stroke-width="1.2" stroke-miterlimit="10"/>
<path d="M117.88 161.925L118.497 167.615H117.457C117.118 166.198 116.593 165.092 115.878 164.296C115.165 163.5 114.144 163.102 112.819 163.102H107.758V172.188H109.976C112.023 172.188 113.087 171.124 113.167 168.995H114.274V176.828H113.167C113.013 175.57 112.748 174.688 112.367 174.186C111.985 173.684 111.189 173.433 109.976 173.433H107.758V180.856C107.758 182.003 108.072 182.8 108.697 183.246C109.324 183.693 110.235 183.916 111.431 183.916C113.18 183.916 114.57 183.745 115.603 183.403C116.636 183.062 117.51 182.283 118.226 181.069C118.865 179.78 119.208 178.738 119.259 177.941H120.3L119.818 185.093H100.818V183.984C101.766 183.95 102.458 183.883 102.893 183.785C103.327 183.686 103.668 183.445 103.916 183.061C104.165 182.677 104.289 182.058 104.289 181.206V165.811C104.289 164.959 104.165 164.341 103.916 163.956C103.668 163.573 103.327 163.331 102.893 163.233C102.458 163.134 101.766 163.068 100.818 163.034V161.925H117.88Z" fill="#0B0B0C"/>
<path d="M117.88 161.925L118.497 167.615H117.457C117.118 166.198 116.593 165.092 115.878 164.296C115.165 163.5 114.144 163.102 112.819 163.102H107.758V172.188H109.976C112.023 172.188 113.087 171.124 113.167 168.995H114.274V176.828H113.167C113.013 175.57 112.748 174.688 112.367 174.186C111.985 173.684 111.189 173.433 109.976 173.433H107.758V180.856C107.758 182.003 108.072 182.8 108.697 183.246C109.324 183.693 110.235 183.916 111.431 183.916C113.18 183.916 114.57 183.745 115.603 183.403C116.636 183.062 117.51 182.283 118.226 181.069C118.865 179.78 119.208 178.738 119.259 177.941H120.3L119.818 185.093H100.818V183.984C101.766 183.95 102.458 183.883 102.893 183.785C103.327 183.686 103.668 183.445 103.916 183.061C104.165 182.677 104.289 182.058 104.289 181.206V165.811C104.289 164.959 104.165 164.341 103.916 163.956C103.668 163.573 103.327 163.331 102.893 163.233C102.458 163.134 101.766 163.068 100.818 163.034V161.925H117.88Z" fill="#0B0B0C" stroke="#0B0B0C" stroke-width="1.2" stroke-miterlimit="10"/>
<path d="M128.068 173.026H130.7C132.224 173.026 133.401 172.57 134.234 171.659C135.066 170.747 135.482 169.515 135.482 167.962C135.482 166.737 135.29 165.751 134.907 165.003C134.523 164.254 133.946 163.717 133.176 163.389C132.405 163.062 131.417 162.898 130.21 162.898C129.95 162.898 129.583 162.91 129.11 162.932C128.636 162.955 128.288 162.966 128.068 162.966V173.026ZM128.068 174.067V181.208C128.068 182.054 128.195 182.671 128.449 183.057C128.703 183.443 129.049 183.686 129.486 183.785C129.924 183.883 130.604 183.95 131.53 183.984V185.093H121.129V183.984C122.077 183.95 122.768 183.883 123.203 183.785C123.637 183.686 123.978 183.445 124.226 183.061C124.474 182.677 124.599 182.058 124.599 181.206V165.811C124.599 164.965 124.47 164.347 124.213 163.961C123.956 163.574 123.61 163.331 123.172 163.233C122.735 163.134 122.054 163.067 121.129 163.034V161.925H129.245C131.264 161.925 132.956 162.034 134.318 162.255C135.68 162.475 136.839 163.036 137.793 163.94C138.746 164.844 139.223 166.23 139.223 168.098C139.223 169.177 138.968 170.174 138.457 171.088C137.946 172.003 137.231 172.717 136.312 173.231C135.256 173.788 133.618 174.067 131.394 174.067H128.068Z" fill="#0B0B0C"/>
<path d="M128.068 173.026H130.7C132.224 173.026 133.401 172.57 134.234 171.659C135.066 170.747 135.482 169.515 135.482 167.962C135.482 166.737 135.29 165.751 134.907 165.003C134.523 164.254 133.946 163.717 133.176 163.389C132.405 163.062 131.417 162.898 130.21 162.898C129.95 162.898 129.583 162.91 129.11 162.932C128.636 162.955 128.288 162.966 128.068 162.966V173.026ZM128.068 174.067V181.208C128.068 182.054 128.195 182.671 128.449 183.057C128.703 183.443 129.049 183.686 129.486 183.785C129.924 183.883 130.604 183.95 131.53 183.984V185.093H121.129V183.984C122.077 183.95 122.768 183.883 123.203 183.785C123.637 183.686 123.978 183.445 124.226 183.061C124.474 182.677 124.599 182.058 124.599 181.206V165.811C124.599 164.965 124.47 164.347 124.213 163.961C123.956 163.574 123.61 163.331 123.172 163.233C122.735 163.134 122.054 163.067 121.129 163.034V161.925H129.245C131.264 161.925 132.956 162.034 134.318 162.255C135.68 162.475 136.839 163.036 137.793 163.94C138.746 164.844 139.223 166.23 139.223 168.098C139.223 169.177 138.968 170.174 138.457 171.088C137.946 172.003 137.231 172.717 136.312 173.231C135.256 173.788 133.618 174.067 131.394 174.067H128.068Z" fill="#0B0B0C" stroke="#0B0B0C" stroke-width="1.2" stroke-miterlimit="10"/>
<path d="M162.174 161.992L162.521 170.316H161.413C161.045 168.801 160.514 167.469 159.817 166.319C159.12 165.169 158.213 164.263 157.096 163.602C155.979 162.941 154.645 162.611 153.093 162.611C151.293 162.611 149.8 163.132 148.613 164.174C147.425 165.216 146.558 166.55 146.01 168.176C145.462 169.802 145.19 171.485 145.19 173.225C145.19 175.106 145.494 176.868 146.103 178.511C146.712 180.155 147.664 181.478 148.959 182.48C150.255 183.482 151.864 183.984 153.787 183.984C155.519 183.984 157.186 183.443 158.785 182.361C160.384 181.28 161.513 179.923 162.174 178.29L163.419 179.265C162.832 180.587 161.989 181.736 160.892 182.713C159.794 183.69 158.545 184.435 157.143 184.948C155.741 185.462 154.32 185.719 152.881 185.719C151.189 185.719 149.622 185.423 148.181 184.83C146.739 184.237 145.501 183.404 144.466 182.332C143.43 181.26 142.634 179.991 142.075 178.526C141.517 177.062 141.237 175.482 141.237 173.788C141.237 172.117 141.517 170.531 142.075 169.029C142.634 167.527 143.434 166.199 144.478 165.045C145.523 163.89 146.771 162.989 148.223 162.339C149.676 161.69 151.251 161.365 152.95 161.365C155.651 161.365 158.148 162.151 160.44 163.719C160.647 163.383 160.901 162.807 161.201 161.992H162.174Z" fill="#0B0B0C"/>
<path d="M162.174 161.992L162.521 170.316H161.413C161.045 168.801 160.514 167.469 159.817 166.319C159.12 165.169 158.213 164.263 157.096 163.602C155.979 162.941 154.645 162.611 153.093 162.611C151.293 162.611 149.8 163.132 148.613 164.174C147.425 165.216 146.558 166.55 146.01 168.176C145.462 169.802 145.19 171.485 145.19 173.225C145.19 175.106 145.494 176.868 146.103 178.511C146.712 180.155 147.664 181.478 148.959 182.48C150.255 183.482 151.864 183.984 153.787 183.984C155.519 183.984 157.186 183.443 158.785 182.361C160.384 181.28 161.513 179.923 162.174 178.29L163.419 179.265C162.832 180.587 161.989 181.736 160.892 182.713C159.794 183.69 158.545 184.435 157.143 184.948C155.741 185.462 154.32 185.719 152.881 185.719C151.189 185.719 149.622 185.423 148.181 184.83C146.739 184.237 145.501 183.404 144.466 182.332C143.43 181.26 142.634 179.991 142.075 178.526C141.517 177.062 141.237 175.482 141.237 173.788C141.237 172.117 141.517 170.531 142.075 169.029C142.634 167.527 143.434 166.199 144.478 165.045C145.523 163.89 146.771 162.989 148.223 162.339C149.676 161.69 151.251 161.365 152.95 161.365C155.651 161.365 158.148 162.151 160.44 163.719C160.647 163.383 160.901 162.807 161.201 161.992H162.174Z" fill="#0B0B0C" stroke="#0B0B0C" stroke-width="1.2" stroke-miterlimit="10"/>
<path d="M182.688 168.03L171.187 181.206C171.187 182.053 171.314 182.669 171.568 183.056C171.822 183.443 172.167 183.686 172.604 183.784C173.042 183.884 173.724 183.95 174.648 183.984V185.093H164.247V183.984C165.196 183.95 165.886 183.884 166.321 183.784C166.755 183.686 167.097 183.445 167.345 183.061C167.594 182.677 167.718 182.059 167.718 181.206V165.812C167.718 164.964 167.589 164.348 167.332 163.961C167.075 163.575 166.728 163.332 166.292 163.233C165.854 163.134 165.174 163.068 164.247 163.034V161.924H174.648V163.034C173.492 163.034 172.592 163.195 171.949 163.517C171.621 163.691 171.412 163.97 171.322 164.351C171.232 164.732 171.187 165.219 171.187 165.812V179.123L182.688 165.812C182.688 165.015 182.561 164.421 182.307 164.029C182.053 163.636 181.695 163.38 181.233 163.258C180.77 163.137 180.101 163.063 179.228 163.034V161.924H189.628V163.034C188.415 163.034 187.512 163.195 186.919 163.517C186.592 163.691 186.383 163.97 186.292 164.351C186.202 164.732 186.157 165.219 186.157 165.812V181.206C186.157 182.081 186.292 182.713 186.564 183.103C186.835 183.493 187.182 183.728 187.605 183.81C188.029 183.892 188.702 183.95 189.628 183.984V185.093H179.228V183.984C180.124 183.955 180.801 183.882 181.258 183.763C181.715 183.645 182.067 183.391 182.315 183.001C182.564 182.612 182.688 182.014 182.688 181.206V168.03Z" fill="#0B0B0C"/>
<path d="M182.688 168.03L171.187 181.206C171.187 182.053 171.314 182.669 171.568 183.056C171.822 183.443 172.167 183.686 172.604 183.784C173.042 183.884 173.724 183.95 174.648 183.984V185.093H164.247V183.984C165.196 183.95 165.886 183.884 166.321 183.784C166.755 183.686 167.097 183.445 167.345 183.061C167.594 182.677 167.718 182.059 167.718 181.206V165.812C167.718 164.964 167.589 164.348 167.332 163.961C167.075 163.575 166.728 163.332 166.292 163.233C165.854 163.134 165.174 163.068 164.247 163.034V161.924H174.648V163.034C173.492 163.034 172.592 163.195 171.949 163.517C171.621 163.691 171.412 163.97 171.322 164.351C171.232 164.732 171.187 165.219 171.187 165.812V179.123L182.688 165.812C182.688 165.015 182.561 164.421 182.307 164.029C182.053 163.636 181.695 163.38 181.233 163.258C180.77 163.137 180.101 163.063 179.228 163.034V161.924H189.628V163.034C188.415 163.034 187.512 163.195 186.919 163.517C186.592 163.691 186.383 163.97 186.292 164.351C186.202 164.732 186.157 165.219 186.157 165.812V181.206C186.157 182.081 186.292 182.713 186.564 183.103C186.835 183.493 187.182 183.728 187.605 183.81C188.029 183.892 188.702 183.95 189.628 183.984V185.093H179.228V183.984C180.124 183.955 180.801 183.882 181.258 183.763C181.715 183.645 182.067 183.391 182.315 183.001C182.564 182.612 182.688 182.014 182.688 181.206V168.03Z" fill="#0B0B0C" stroke="#0B0B0C" stroke-width="1.2" stroke-miterlimit="10"/>
<path d="M206.468 185.093H196.143V183.984C197.082 183.955 197.774 183.886 198.222 183.776C198.668 183.666 199.012 183.419 199.252 183.036C199.493 182.652 199.613 182.041 199.613 181.206V163.102H195.725C194.387 163.102 193.391 163.478 192.738 164.232C192.088 164.986 191.558 166.087 191.152 167.539H190.042L190.659 161.925H211.944L212.569 167.539H211.529C211.229 166.59 210.911 165.803 210.572 165.177C210.234 164.55 209.77 164.047 209.18 163.669C208.59 163.291 207.824 163.102 206.882 163.102H203.007V181.206C203.007 182.048 203.137 182.662 203.4 183.052C203.662 183.442 204.011 183.686 204.449 183.785C204.887 183.883 205.56 183.95 206.468 183.984V185.093Z" fill="#0B0B0C"/>
<path d="M206.468 185.093H196.143V183.984C197.082 183.955 197.774 183.886 198.222 183.776C198.668 183.666 199.012 183.419 199.252 183.036C199.493 182.652 199.613 182.041 199.613 181.206V163.102H195.725C194.387 163.102 193.391 163.478 192.738 164.232C192.088 164.986 191.558 166.087 191.152 167.539H190.042L190.659 161.925H211.944L212.569 167.539H211.529C211.229 166.59 210.911 165.803 210.572 165.177C210.234 164.55 209.77 164.047 209.18 163.669C208.59 163.291 207.824 163.102 206.882 163.102H203.007V181.206C203.007 182.048 203.137 182.662 203.4 183.052C203.662 183.442 204.011 183.686 204.449 183.785C204.887 183.883 205.56 183.95 206.468 183.984V185.093Z" fill="#0B0B0C" stroke="#0B0B0C" stroke-width="1.2" stroke-miterlimit="10"/>
<path d="M230.181 161.925L230.798 167.615H229.757C229.419 166.198 228.892 165.092 228.179 164.296C227.465 163.5 226.446 163.102 225.12 163.102H220.059V172.188H222.276C224.324 172.188 225.388 171.124 225.467 168.995H226.575V176.828H225.467C225.314 175.57 225.048 174.688 224.667 174.186C224.286 173.684 223.489 173.433 222.276 173.433H220.059V180.856C220.059 182.003 220.372 182.8 220.999 183.246C221.624 183.693 222.535 183.916 223.731 183.916C225.481 183.916 226.872 183.745 227.904 183.403C228.936 183.062 229.811 182.283 230.527 181.069C231.165 179.78 231.509 178.738 231.56 177.941H232.601L232.119 185.093H213.119V183.984C214.068 183.95 214.758 183.883 215.193 183.785C215.627 183.686 215.969 183.445 216.217 183.061C216.466 182.677 216.59 182.058 216.59 181.206V165.811C216.59 164.959 216.466 164.341 216.217 163.956C215.969 163.573 215.627 163.331 215.193 163.233C214.758 163.134 214.068 163.068 213.119 163.034V161.925H230.181Z" fill="#0B0B0C"/>
<path d="M230.181 161.925L230.798 167.615H229.757C229.419 166.198 228.892 165.092 228.179 164.296C227.465 163.5 226.446 163.102 225.12 163.102H220.059V172.188H222.276C224.324 172.188 225.388 171.124 225.467 168.995H226.575V176.828H225.467C225.314 175.57 225.048 174.688 224.667 174.186C224.286 173.684 223.489 173.433 222.276 173.433H220.059V180.856C220.059 182.003 220.372 182.8 220.999 183.246C221.624 183.693 222.535 183.916 223.731 183.916C225.481 183.916 226.872 183.745 227.904 183.403C228.936 183.062 229.811 182.283 230.527 181.069C231.165 179.78 231.509 178.738 231.56 177.941H232.601L232.119 185.093H213.119V183.984C214.068 183.95 214.758 183.883 215.193 183.785C215.627 183.686 215.969 183.445 216.217 183.061C216.466 182.677 216.59 182.058 216.59 181.206V165.811C216.59 164.959 216.466 164.341 216.217 163.956C215.969 163.573 215.627 163.331 215.193 163.233C214.758 163.134 214.068 163.068 213.119 163.034V161.925H230.181Z" fill="#0B0B0C" stroke="#0B0B0C" stroke-width="1.2" stroke-miterlimit="10"/>
<path d="M249.239 185.093H238.914V183.984C239.853 183.955 240.545 183.886 240.993 183.776C241.438 183.666 241.783 183.419 242.023 183.036C242.263 182.652 242.383 182.041 242.383 181.206V163.102H238.496C237.157 163.102 236.162 163.478 235.509 164.232C234.858 164.986 234.328 166.087 233.922 167.539H232.812L233.43 161.925H254.714L255.34 167.539H254.299C254 166.59 253.681 165.803 253.343 165.177C253.004 164.55 252.541 164.047 251.95 163.669C251.361 163.291 250.595 163.102 249.653 163.102H245.778V181.206C245.778 182.048 245.908 182.662 246.17 183.052C246.433 183.442 246.783 183.686 247.22 183.785C247.658 183.883 248.33 183.95 249.239 183.984V185.093Z" fill="#0B0B0C"/>
<path d="M249.239 185.093H238.914V183.984C239.853 183.955 240.545 183.886 240.993 183.776C241.438 183.666 241.783 183.419 242.023 183.036C242.263 182.652 242.383 182.041 242.383 181.206V163.102H238.496C237.157 163.102 236.162 163.478 235.509 164.232C234.858 164.986 234.328 166.087 233.922 167.539H232.812L233.43 161.925H254.714L255.34 167.539H254.299C254 166.59 253.681 165.803 253.343 165.177C253.004 164.55 252.541 164.047 251.95 163.669C251.361 163.291 250.595 163.102 249.653 163.102H245.778V181.206C245.778 182.048 245.908 182.662 246.17 183.052C246.433 183.442 246.783 183.686 247.22 183.785C247.658 183.883 248.33 183.95 249.239 183.984V185.093Z" fill="#0B0B0C" stroke="#0B0B0C" stroke-width="1.2" stroke-miterlimit="10"/>
<path d="M7.30625 205.543H6.28732V198.683H2.49807V205.543H1.48535V197.855H7.30625V205.543Z" fill="#0B0B0C"/>
<path d="M7.30625 205.543H6.28732V198.683H2.49807V205.543H1.48535V197.855H7.30625V205.543Z" fill="#0B0B0C" stroke="#0B0B0C" stroke-width="0.666667" stroke-miterlimit="10"/>
<path d="M10.1617 201.704H11.9825C12.5238 201.704 12.9399 201.576 13.2275 201.32C13.5162 201.065 13.6606 200.695 13.6606 200.212C13.6606 199.754 13.5162 199.387 13.2275 199.111C12.9399 198.837 12.5435 198.694 12.0406 198.683H10.1617V201.704ZM10.1617 202.533V205.543H9.14844V197.854H11.9825C12.8232 197.854 13.4818 198.069 13.9583 198.498C14.4353 198.928 14.6744 199.497 14.6744 200.204C14.6744 200.951 14.441 201.526 13.9752 201.928C13.5089 202.331 12.8413 202.533 11.9723 202.533H10.1617Z" fill="#0B0B0C"/>
<path d="M10.1617 201.704H11.9825C12.5238 201.704 12.9399 201.576 13.2275 201.32C13.5162 201.065 13.6606 200.695 13.6606 200.212C13.6606 199.754 13.5162 199.387 13.2275 199.111C12.9399 198.837 12.5435 198.694 12.0406 198.683H10.1617V201.704ZM10.1617 202.533V205.543H9.14844V197.854H11.9825C12.8232 197.854 13.4818 198.069 13.9583 198.498C14.4353 198.928 14.6744 199.497 14.6744 200.204C14.6744 200.951 14.441 201.526 13.9752 201.928C13.5089 202.331 12.8413 202.533 11.9723 202.533H10.1617Z" fill="#0B0B0C" stroke="#0B0B0C" stroke-width="0.666667" stroke-miterlimit="10"/>
<path d="M20.8113 197.854H21.8246V205.543H20.8113V199.619L17.0272 205.543H16.0088V197.854H17.0272V203.779L20.8113 197.854Z" fill="#0B0B0C"/>
<path d="M20.8113 197.854H21.8246V205.543H20.8113V199.619L17.0272 205.543H16.0088V197.854H17.0272V203.779L20.8113 197.854Z" fill="#0B0B0C" stroke="#0B0B0C" stroke-width="0.666667" stroke-miterlimit="10"/>
<path d="M32.2168 205.543H31.1985V198.683H27.4092V205.543H26.3965V197.855H32.2168V205.543Z" fill="#0B0B0C"/>
<path d="M32.2168 205.543H31.1985V198.683H27.4092V205.543H26.3965V197.855H32.2168V205.543Z" fill="#0B0B0C" stroke="#0B0B0C" stroke-width="0.666667" stroke-miterlimit="10"/>
<path d="M35.0719 201.704H36.8926C37.434 201.704 37.8501 201.576 38.1377 201.32C38.4264 201.065 38.5707 200.695 38.5707 200.212C38.5707 199.754 38.4264 199.387 38.1377 199.111C37.8501 198.837 37.4537 198.694 36.9507 198.683H35.0719V201.704ZM35.0719 202.533V205.543H34.0586V197.854H36.8926C37.7334 197.854 38.392 198.069 38.8685 198.498C39.3455 198.928 39.5846 199.497 39.5846 200.204C39.5846 200.951 39.3511 201.526 38.8854 201.928C38.4191 202.331 37.7514 202.533 36.8825 202.533H35.0719Z" fill="#0B0B0C"/>
<path d="M35.0719 201.704H36.8926C37.434 201.704 37.8501 201.576 38.1377 201.32C38.4264 201.065 38.5707 200.695 38.5707 200.212C38.5707 199.754 38.4264 199.387 38.1377 199.111C37.8501 198.837 37.4537 198.694 36.9507 198.683H35.0719V201.704ZM35.0719 202.533V205.543H34.0586V197.854H36.8926C37.7334 197.854 38.392 198.069 38.8685 198.498C39.3455 198.928 39.5846 199.497 39.5846 200.204C39.5846 200.951 39.3511 201.526 38.8854 201.928C38.4191 202.331 37.7514 202.533 36.8825 202.533H35.0719Z" fill="#0B0B0C" stroke="#0B0B0C" stroke-width="0.666667" stroke-miterlimit="10"/>
<path d="M41.4798 202.702H44.0922L42.7835 199.106L41.4798 202.702ZM44.3928 203.531H41.1736L40.4501 205.543H39.4053L42.3397 197.854H43.2261L46.1656 205.543H45.1269L44.3928 203.531Z" fill="#0B0B0C"/>
<path d="M41.4798 202.702H44.0922L42.7835 199.106L41.4798 202.702ZM44.3928 203.531H41.1736L40.4501 205.543H39.4053L42.3397 197.854H43.2261L46.1656 205.543H45.1269L44.3928 203.531Z" fill="#0B0B0C" stroke="#0B0B0C" stroke-width="0.666667" stroke-miterlimit="10"/>
<path d="M48.214 201.947V204.713H49.8865C50.3579 204.713 50.7301 204.592 51.003 204.347C51.2753 204.102 51.4124 203.765 51.4124 203.336C51.4124 202.409 50.9094 201.947 49.9023 201.947H48.214ZM48.214 201.133H49.7444C50.1876 201.133 50.5423 201.022 50.8079 200.8C51.074 200.578 51.206 200.276 51.206 199.895C51.206 199.472 51.083 199.164 50.8361 198.971C50.5902 198.779 50.2158 198.683 49.7123 198.683H48.214V201.133ZM47.2002 205.543V197.854H49.7123C50.5462 197.854 51.1733 198.026 51.5939 198.372C52.0146 198.716 52.2249 199.227 52.2249 199.903C52.2249 200.262 52.1228 200.58 51.9187 200.856C51.7146 201.133 51.436 201.346 51.0842 201.497C51.5003 201.614 51.8279 201.835 52.0693 202.16C52.31 202.486 52.4301 202.874 52.4301 203.325C52.4301 204.015 52.2074 204.557 51.7603 204.952C51.3131 205.345 50.6821 205.543 49.8656 205.543H47.2002Z" fill="#0B0B0C"/>
<path d="M48.214 201.947V204.713H49.8865C50.3579 204.713 50.7301 204.592 51.003 204.347C51.2753 204.102 51.4124 203.765 51.4124 203.336C51.4124 202.409 50.9094 201.947 49.9023 201.947H48.214ZM48.214 201.133H49.7444C50.1876 201.133 50.5423 201.022 50.8079 200.8C51.074 200.578 51.206 200.276 51.206 199.895C51.206 199.472 51.083 199.164 50.8361 198.971C50.5902 198.779 50.2158 198.683 49.7123 198.683H48.214V201.133ZM47.2002 205.543V197.854H49.7123C50.5462 197.854 51.1733 198.026 51.5939 198.372C52.0146 198.716 52.2249 199.227 52.2249 199.903C52.2249 200.262 52.1228 200.58 51.9187 200.856C51.7146 201.133 51.436 201.346 51.0842 201.497C51.5003 201.614 51.8279 201.835 52.0693 202.16C52.31 202.486 52.4301 202.874 52.4301 203.325C52.4301 204.015 52.2074 204.557 51.7603 204.952C51.3131 205.345 50.6821 205.543 49.8656 205.543H47.2002Z" fill="#0B0B0C" stroke="#0B0B0C" stroke-width="0.666667" stroke-miterlimit="10"/>
<path d="M58.7732 197.854H59.7871V205.543H58.7732V199.619L54.9896 205.543H53.9707V197.854H54.9896V203.779L58.7732 197.854Z" fill="#0B0B0C"/>
<path d="M58.7732 197.854H59.7871V205.543H58.7732V199.619L54.9896 205.543H53.9707V197.854H54.9896V203.779L58.7732 197.854Z" fill="#0B0B0C" stroke="#0B0B0C" stroke-width="0.666667" stroke-miterlimit="10"/>
<path d="M66.7898 198.683H64.32V205.543H63.3124V198.683H60.8477V197.854H66.7898V198.683Z" fill="#0B0B0C"/>
<path d="M66.7898 198.683H64.32V205.543H63.3124V198.683H60.8477V197.854H66.7898V198.683Z" fill="#0B0B0C" stroke="#0B0B0C" stroke-width="0.666667" stroke-miterlimit="10"/>
<path d="M72.2742 201.989H68.9434V204.714H72.8122V205.543H67.9307V197.854H72.7597V198.683H68.9434V201.16H72.2742V201.989Z" fill="#0B0B0C"/>
<path d="M72.2742 201.989H68.9434V204.714H72.8122V205.543H67.9307V197.854H72.7597V198.683H68.9434V201.16H72.2742V201.989Z" fill="#0B0B0C" stroke="#0B0B0C" stroke-width="0.666667" stroke-miterlimit="10"/>
<path d="M79.8838 197.854V205.543H78.8705V198.683H76.116L75.9784 201.732C75.9265 202.755 75.8211 203.522 75.6649 204.038C75.5081 204.551 75.2781 204.93 74.9758 205.17C74.6736 205.412 74.2687 205.536 73.7624 205.543H73.4297V204.713L73.6406 204.703C73.9676 204.679 74.2197 204.572 74.3956 204.383C74.5715 204.196 74.7046 203.895 74.7971 203.483C74.8879 203.072 74.9533 202.438 74.9916 201.582L75.1506 197.854H79.8838Z" fill="#0B0B0C"/>
<path d="M79.8838 197.854V205.543H78.8705V198.683H76.116L75.9784 201.732C75.9265 202.755 75.8211 203.522 75.6649 204.038C75.5081 204.551 75.2781 204.93 74.9758 205.17C74.6736 205.412 74.2687 205.536 73.7624 205.543H73.4297V204.713L73.6406 204.703C73.9676 204.679 74.2197 204.572 74.3956 204.383C74.5715 204.196 74.7046 203.895 74.7971 203.483C74.8879 203.072 74.9533 202.438 74.9916 201.582L75.1506 197.854H79.8838Z" fill="#0B0B0C" stroke="#0B0B0C" stroke-width="0.666667" stroke-miterlimit="10"/>
<path d="M82.7023 201.82V204.713H84.5546C85.0571 204.713 85.4495 204.58 85.7292 204.312C86.0089 204.044 86.1487 203.684 86.1487 203.233C86.1487 202.799 86.0134 202.457 85.745 202.206C85.4749 201.956 85.0932 201.827 84.5969 201.82H82.7023ZM82.7023 200.991H84.6127C85.414 201.001 86.041 201.207 86.4904 201.609C86.9415 202.01 87.1671 202.556 87.1671 203.246C87.1671 203.939 86.9404 204.492 86.4859 204.904C86.0315 205.316 85.4134 205.529 84.6285 205.543H81.6885V197.854H82.7023V200.991Z" fill="#0B0B0C"/>
<path d="M82.7023 201.82V204.713H84.5546C85.0571 204.713 85.4495 204.58 85.7292 204.312C86.0089 204.044 86.1487 203.684 86.1487 203.233C86.1487 202.799 86.0134 202.457 85.745 202.206C85.4749 201.956 85.0932 201.827 84.5969 201.82H82.7023ZM82.7023 200.991H84.6127C85.414 201.001 86.041 201.207 86.4904 201.609C86.9415 202.01 87.1671 202.556 87.1671 203.246C87.1671 203.939 86.9404 204.492 86.4859 204.904C86.0315 205.316 85.4134 205.529 84.6285 205.543H81.6885V197.854H82.7023V200.991Z" fill="#0B0B0C" stroke="#0B0B0C" stroke-width="0.666667" stroke-miterlimit="10"/>
<path d="M94.1554 203.103C94.0601 203.916 93.7602 204.544 93.2555 204.985C92.7503 205.428 92.0798 205.648 91.2425 205.648C90.3346 205.648 89.6072 205.322 89.0603 204.671C88.5127 204.02 88.2393 203.149 88.2393 202.058V201.318C88.2393 200.603 88.3667 199.975 88.6221 199.433C88.877 198.891 89.2384 198.474 89.7065 198.184C90.1745 197.894 90.7158 197.748 91.3315 197.748C92.1475 197.748 92.8033 197.976 93.2955 198.432C93.7872 198.888 94.0742 199.519 94.1554 200.326H93.1371C93.0491 199.711 92.858 199.266 92.5648 198.991C92.2698 198.715 91.8593 198.578 91.3315 198.578C90.6842 198.578 90.1762 198.817 89.8091 199.296C89.4409 199.775 89.2582 200.458 89.2582 201.341V202.087C89.2582 202.922 89.4319 203.586 89.7798 204.08C90.1288 204.573 90.6154 204.82 91.2425 204.82C91.8052 204.82 92.2371 204.692 92.5377 204.436C92.8382 204.181 93.0384 203.737 93.1371 203.103H94.1554Z" fill="#0B0B0C"/>
<path d="M94.1554 203.103C94.0601 203.916 93.7602 204.544 93.2555 204.985C92.7503 205.428 92.0798 205.648 91.2425 205.648C90.3346 205.648 89.6072 205.322 89.0603 204.671C88.5127 204.02 88.2393 203.149 88.2393 202.058V201.318C88.2393 200.603 88.3667 199.975 88.6221 199.433C88.877 198.891 89.2384 198.474 89.7065 198.184C90.1745 197.894 90.7158 197.748 91.3315 197.748C92.1475 197.748 92.8033 197.976 93.2955 198.432C93.7872 198.888 94.0742 199.519 94.1554 200.326H93.1371C93.0491 199.711 92.858 199.266 92.5648 198.991C92.2698 198.715 91.8593 198.578 91.3315 198.578C90.6842 198.578 90.1762 198.817 89.8091 199.296C89.4409 199.775 89.2582 200.458 89.2582 201.341V202.087C89.2582 202.922 89.4319 203.586 89.7798 204.08C90.1288 204.573 90.6154 204.82 91.2425 204.82C91.8052 204.82 92.2371 204.692 92.5377 204.436C92.8382 204.181 93.0384 203.737 93.1371 203.103H94.1554Z" fill="#0B0B0C" stroke="#0B0B0C" stroke-width="0.666667" stroke-miterlimit="10"/>
<path d="M100.694 198.683H98.2243V205.543H97.2167V198.683H94.752V197.854H100.694V198.683Z" fill="#0B0B0C"/>
<path d="M100.694 198.683H98.2243V205.543H97.2167V198.683H94.752V197.854H100.694V198.683Z" fill="#0B0B0C" stroke="#0B0B0C" stroke-width="0.666667" stroke-miterlimit="10"/>
<path d="M102.846 201.947V204.713H104.519C104.991 204.713 105.363 204.592 105.636 204.347C105.908 204.102 106.046 203.765 106.046 203.336C106.046 202.409 105.542 201.947 104.535 201.947H102.846ZM102.846 201.133H104.377C104.82 201.133 105.175 201.022 105.44 200.8C105.706 200.578 105.839 200.276 105.839 199.895C105.839 199.472 105.715 199.164 105.469 198.971C105.224 198.779 104.849 198.683 104.346 198.683H102.846V201.133ZM101.833 205.543V197.854H104.346C105.18 197.854 105.806 198.026 106.227 198.372C106.647 198.716 106.858 199.227 106.858 199.903C106.858 200.262 106.756 200.58 106.552 200.856C106.347 201.133 106.069 201.346 105.718 201.497C106.133 201.614 106.461 201.835 106.703 202.16C106.942 202.486 107.063 202.874 107.063 203.325C107.063 204.015 106.84 204.557 106.393 204.952C105.945 205.345 105.315 205.543 104.498 205.543H101.833Z" fill="#0B0B0C"/>
<path d="M102.846 201.947V204.713H104.519C104.991 204.713 105.363 204.592 105.636 204.347C105.908 204.102 106.046 203.765 106.046 203.336C106.046 202.409 105.542 201.947 104.535 201.947H102.846ZM102.846 201.133H104.377C104.82 201.133 105.175 201.022 105.44 200.8C105.706 200.578 105.839 200.276 105.839 199.895C105.839 199.472 105.715 199.164 105.469 198.971C105.224 198.779 104.849 198.683 104.346 198.683H102.846V201.133ZM101.833 205.543V197.854H104.346C105.18 197.854 105.806 198.026 106.227 198.372C106.647 198.716 106.858 199.227 106.858 199.903C106.858 200.262 106.756 200.58 106.552 200.856C106.347 201.133 106.069 201.346 105.718 201.497C106.133 201.614 106.461 201.835 106.703 202.16C106.942 202.486 107.063 202.874 107.063 203.325C107.063 204.015 106.84 204.557 106.393 204.952C105.945 205.345 105.315 205.543 104.498 205.543H101.833Z" fill="#0B0B0C" stroke="#0B0B0C" stroke-width="0.666667" stroke-miterlimit="10"/>
<path d="M112.906 201.989H109.575V204.714H113.445V205.543H108.562V197.854H113.392V198.683H109.575V201.16H112.906V201.989Z" fill="#0B0B0C"/>
<path d="M112.906 201.989H109.575V204.714H113.445V205.543H108.562V197.854H113.392V198.683H109.575V201.16H112.906V201.989Z" fill="#0B0B0C" stroke="#0B0B0C" stroke-width="0.666667" stroke-miterlimit="10"/>
<path d="M118.394 201.704H120.215C120.757 201.704 121.172 201.576 121.46 201.32C121.75 201.065 121.894 200.695 121.894 200.212C121.894 199.754 121.75 199.387 121.46 199.111C121.172 198.837 120.777 198.694 120.273 198.683H118.394V201.704ZM118.394 202.533V205.543H117.381V197.854H120.215C121.057 197.854 121.715 198.069 122.192 198.498C122.668 198.928 122.907 199.497 122.907 200.204C122.907 200.951 122.674 201.526 122.208 201.928C121.741 202.331 121.074 202.533 120.205 202.533H118.394Z" fill="#0B0B0C"/>
<path d="M118.394 201.704H120.215C120.757 201.704 121.172 201.576 121.46 201.32C121.75 201.065 121.894 200.695 121.894 200.212C121.894 199.754 121.75 199.387 121.46 199.111C121.172 198.837 120.777 198.694 120.273 198.683H118.394V201.704ZM118.394 202.533V205.543H117.381V197.854H120.215C121.057 197.854 121.715 198.069 122.192 198.498C122.668 198.928 122.907 199.497 122.907 200.204C122.907 200.951 122.674 201.526 122.208 201.928C121.741 202.331 121.074 202.533 120.205 202.533H118.394Z" fill="#0B0B0C" stroke="#0B0B0C" stroke-width="0.666667" stroke-miterlimit="10"/>
<path d="M129.104 201.451C129.104 200.539 128.92 199.839 128.555 199.351C128.189 198.863 127.677 198.619 127.019 198.619C126.379 198.619 125.875 198.863 125.508 199.351C125.139 199.839 124.951 200.515 124.939 201.382V201.947C124.939 202.83 125.126 203.525 125.496 204.03C125.868 204.535 126.379 204.787 127.03 204.787C127.684 204.787 128.191 204.549 128.55 204.072C128.909 203.595 129.094 202.911 129.104 202.02V201.451ZM130.111 201.947C130.111 202.7 129.985 203.358 129.732 203.92C129.478 204.48 129.119 204.909 128.656 205.205C128.191 205.501 127.649 205.648 127.03 205.648C126.425 205.648 125.887 205.5 125.42 205.202C124.951 204.905 124.589 204.48 124.33 203.93C124.071 203.379 123.938 202.74 123.932 202.015V201.461C123.932 200.722 124.06 200.068 124.317 199.501C124.573 198.935 124.937 198.501 125.407 198.2C125.876 197.899 126.414 197.748 127.019 197.748C127.635 197.748 128.178 197.897 128.647 198.194C129.116 198.492 129.478 198.923 129.732 199.488C129.985 200.054 130.111 200.711 130.111 201.461V201.947Z" fill="#0B0B0C"/>
<path d="M129.104 201.451C129.104 200.539 128.92 199.839 128.555 199.351C128.189 198.863 127.677 198.619 127.019 198.619C126.379 198.619 125.875 198.863 125.508 199.351C125.139 199.839 124.951 200.515 124.939 201.382V201.947C124.939 202.83 125.126 203.525 125.496 204.03C125.868 204.535 126.379 204.787 127.03 204.787C127.684 204.787 128.191 204.549 128.55 204.072C128.909 203.595 129.094 202.911 129.104 202.02V201.451ZM130.111 201.947C130.111 202.7 129.985 203.358 129.732 203.92C129.478 204.48 129.119 204.909 128.656 205.205C128.191 205.501 127.649 205.648 127.03 205.648C126.425 205.648 125.887 205.5 125.42 205.202C124.951 204.905 124.589 204.48 124.33 203.93C124.071 203.379 123.938 202.74 123.932 202.015V201.461C123.932 200.722 124.06 200.068 124.317 199.501C124.573 198.935 124.937 198.501 125.407 198.2C125.876 197.899 126.414 197.748 127.019 197.748C127.635 197.748 128.178 197.897 128.647 198.194C129.116 198.492 129.478 198.923 129.732 199.488C129.985 200.054 130.111 200.711 130.111 201.461V201.947Z" fill="#0B0B0C" stroke="#0B0B0C" stroke-width="0.666667" stroke-miterlimit="10"/>
<path d="M137.283 203.103C137.189 203.916 136.889 204.544 136.384 204.985C135.879 205.428 135.208 205.648 134.371 205.648C133.463 205.648 132.736 205.322 132.188 204.671C131.642 204.02 131.367 203.149 131.367 202.058V201.318C131.367 200.603 131.495 199.975 131.75 199.433C132.005 198.891 132.366 198.474 132.835 198.184C133.302 197.894 133.844 197.748 134.46 197.748C135.276 197.748 135.931 197.976 136.424 198.432C136.916 198.888 137.202 199.519 137.283 200.326H136.266C136.178 199.711 135.986 199.266 135.693 198.991C135.398 198.715 134.988 198.578 134.46 198.578C133.813 198.578 133.305 198.817 132.938 199.296C132.57 199.775 132.386 200.458 132.386 201.341V202.087C132.386 202.922 132.56 203.586 132.908 204.08C133.257 204.573 133.744 204.82 134.371 204.82C134.933 204.82 135.366 204.692 135.666 204.436C135.968 204.181 136.166 203.737 136.266 203.103H137.283Z" fill="#0B0B0C"/>
<path d="M137.283 203.103C137.189 203.916 136.889 204.544 136.384 204.985C135.879 205.428 135.208 205.648 134.371 205.648C133.463 205.648 132.736 205.322 132.188 204.671C131.642 204.02 131.367 203.149 131.367 202.058V201.318C131.367 200.603 131.495 199.975 131.75 199.433C132.005 198.891 132.366 198.474 132.835 198.184C133.302 197.894 133.844 197.748 134.46 197.748C135.276 197.748 135.931 197.976 136.424 198.432C136.916 198.888 137.202 199.519 137.283 200.326H136.266C136.178 199.711 135.986 199.266 135.693 198.991C135.398 198.715 134.988 198.578 134.46 198.578C133.813 198.578 133.305 198.817 132.938 199.296C132.57 199.775 132.386 200.458 132.386 201.341V202.087C132.386 202.922 132.56 203.586 132.908 204.08C133.257 204.573 133.744 204.82 134.371 204.82C134.933 204.82 135.366 204.692 135.666 204.436C135.968 204.181 136.166 203.737 136.266 203.103H137.283Z" fill="#0B0B0C" stroke="#0B0B0C" stroke-width="0.666667" stroke-miterlimit="10"/>
<path d="M144.319 203.103C144.224 203.916 143.924 204.544 143.42 204.985C142.914 205.428 142.243 205.648 141.406 205.648C140.498 205.648 139.771 205.322 139.223 204.671C138.677 204.02 138.402 203.149 138.402 202.058V201.318C138.402 200.603 138.53 199.975 138.785 199.433C139.04 198.891 139.402 198.474 139.87 198.184C140.338 197.894 140.88 197.748 141.496 197.748C142.311 197.748 142.966 197.976 143.459 198.432C143.952 198.888 144.237 199.519 144.319 200.326H143.301C143.213 199.711 143.022 199.266 142.728 198.991C142.434 198.715 142.024 198.578 141.496 198.578C140.848 198.578 140.341 198.817 139.973 199.296C139.606 199.775 139.421 200.458 139.421 201.341V202.087C139.421 202.922 139.595 203.586 139.944 204.08C140.292 204.573 140.78 204.82 141.406 204.82C141.968 204.82 142.401 204.692 142.701 204.436C143.003 204.181 143.201 203.737 143.301 203.103H144.319Z" fill="#0B0B0C"/>
<path d="M144.319 203.103C144.224 203.916 143.924 204.544 143.42 204.985C142.914 205.428 142.243 205.648 141.406 205.648C140.498 205.648 139.771 205.322 139.223 204.671C138.677 204.02 138.402 203.149 138.402 202.058V201.318C138.402 200.603 138.53 199.975 138.785 199.433C139.04 198.891 139.402 198.474 139.87 198.184C140.338 197.894 140.88 197.748 141.496 197.748C142.311 197.748 142.966 197.976 143.459 198.432C143.952 198.888 144.237 199.519 144.319 200.326H143.301C143.213 199.711 143.022 199.266 142.728 198.991C142.434 198.715 142.024 198.578 141.496 198.578C140.848 198.578 140.341 198.817 139.973 199.296C139.606 199.775 139.421 200.458 139.421 201.341V202.087C139.421 202.922 139.595 203.586 139.944 204.08C140.292 204.573 140.78 204.82 141.406 204.82C141.968 204.82 142.401 204.692 142.701 204.436C143.003 204.181 143.201 203.737 143.301 203.103H144.319Z" fill="#0B0B0C" stroke="#0B0B0C" stroke-width="0.666667" stroke-miterlimit="10"/>
<path d="M150.547 197.854H151.561V205.543H150.547V199.619L146.763 205.543H145.744V197.854H146.763V203.779L150.547 197.854Z" fill="#0B0B0C"/>
<path d="M150.547 197.854H151.561V205.543H150.547V199.619L146.763 205.543H145.744V197.854H146.763V203.779L150.547 197.854Z" fill="#0B0B0C" stroke="#0B0B0C" stroke-width="0.666667" stroke-miterlimit="10"/>
<path d="M157.967 195.937C157.967 196.365 157.823 196.708 157.532 196.968C157.241 197.227 156.861 197.358 156.39 197.358C155.917 197.358 155.536 197.227 155.244 196.966C154.952 196.704 154.806 196.361 154.806 195.937H155.603C155.603 196.183 155.67 196.377 155.803 196.516C155.937 196.654 156.132 196.724 156.39 196.724C156.636 196.724 156.828 196.656 156.968 196.518C157.105 196.38 157.175 196.187 157.175 195.937H157.967ZM158.252 197.854H159.266V205.543H158.252V199.618L154.468 205.543H153.449V197.854H154.468V203.779L158.252 197.854Z" fill="#0B0B0C"/>
<path d="M157.967 195.937C157.967 196.365 157.823 196.708 157.532 196.968C157.241 197.227 156.861 197.358 156.39 197.358C155.917 197.358 155.536 197.227 155.244 196.966C154.952 196.704 154.806 196.361 154.806 195.937H155.603C155.603 196.183 155.67 196.377 155.803 196.516C155.937 196.654 156.132 196.724 156.39 196.724C156.636 196.724 156.828 196.656 156.968 196.518C157.105 196.38 157.175 196.187 157.175 195.937H157.967ZM158.252 197.854H159.266V205.543H158.252V199.618L154.468 205.543H153.449V197.854H154.468V203.779L158.252 197.854Z" fill="#0B0B0C" stroke="#0B0B0C" stroke-width="0.666667" stroke-miterlimit="10"/>
<path d="M166.765 203.103C166.67 203.916 166.37 204.544 165.865 204.985C165.36 205.428 164.69 205.648 163.852 205.648C162.944 205.648 162.217 205.322 161.67 204.671C161.123 204.02 160.849 203.149 160.849 202.058V201.318C160.849 200.603 160.977 199.975 161.232 199.433C161.486 198.891 161.848 198.474 162.316 198.184C162.784 197.894 163.326 197.748 163.942 197.748C164.757 197.748 165.412 197.976 165.905 198.432C166.398 198.888 166.684 199.519 166.765 200.326H165.747C165.659 199.711 165.468 199.266 165.174 198.991C164.88 198.715 164.469 198.578 163.942 198.578C163.294 198.578 162.787 198.817 162.419 199.296C162.051 199.775 161.868 200.458 161.868 201.341V202.087C161.868 202.922 162.042 203.586 162.39 204.08C162.739 204.573 163.226 204.82 163.852 204.82C164.415 204.82 164.847 204.692 165.148 204.436C165.449 204.181 165.648 203.737 165.747 203.103H166.765Z" fill="#0B0B0C"/>
<path d="M166.765 203.103C166.67 203.916 166.37 204.544 165.865 204.985C165.36 205.428 164.69 205.648 163.852 205.648C162.944 205.648 162.217 205.322 161.67 204.671C161.123 204.02 160.849 203.149 160.849 202.058V201.318C160.849 200.603 160.977 199.975 161.232 199.433C161.486 198.891 161.848 198.474 162.316 198.184C162.784 197.894 163.326 197.748 163.942 197.748C164.757 197.748 165.412 197.976 165.905 198.432C166.398 198.888 166.684 199.519 166.765 200.326H165.747C165.659 199.711 165.468 199.266 165.174 198.991C164.88 198.715 164.469 198.578 163.942 198.578C163.294 198.578 162.787 198.817 162.419 199.296C162.051 199.775 161.868 200.458 161.868 201.341V202.087C161.868 202.922 162.042 203.586 162.39 204.08C162.739 204.573 163.226 204.82 163.852 204.82C164.415 204.82 164.847 204.692 165.148 204.436C165.449 204.181 165.648 203.737 165.747 203.103H166.765Z" fill="#0B0B0C" stroke="#0B0B0C" stroke-width="0.666667" stroke-miterlimit="10"/>
<path d="M170.143 202.089H169.209V205.543H168.195V197.854H169.209V201.244H170L172.686 197.854H173.948L171.014 201.583L174.165 205.543H172.924L170.143 202.089Z" fill="#0B0B0C"/>
<path d="M170.143 202.089H169.209V205.543H168.195V197.854H169.209V201.244H170L172.686 197.854H173.948L171.014 201.583L174.165 205.543H172.924L170.143 202.089Z" fill="#0B0B0C" stroke="#0B0B0C" stroke-width="0.666667" stroke-miterlimit="10"/>
<path d="M179.832 201.451C179.832 200.539 179.649 199.839 179.284 199.351C178.917 198.863 178.406 198.619 177.748 198.619C177.107 198.619 176.603 198.863 176.236 199.351C175.868 199.839 175.679 200.515 175.668 201.382V201.947C175.668 202.83 175.854 203.525 176.225 204.03C176.597 204.535 177.107 204.787 177.758 204.787C178.412 204.787 178.92 204.549 179.278 204.072C179.637 203.595 179.822 202.911 179.832 202.02V201.451ZM180.84 201.947C180.84 202.7 180.714 203.358 180.461 203.92C180.206 204.48 179.848 204.909 179.384 205.205C178.92 205.501 178.377 205.648 177.758 205.648C177.154 205.648 176.616 205.5 176.148 205.202C175.68 204.905 175.318 204.48 175.059 203.93C174.8 203.379 174.667 202.74 174.66 202.015V201.461C174.66 200.722 174.788 200.068 175.045 199.501C175.302 198.935 175.666 198.501 176.135 198.2C176.604 197.899 177.142 197.748 177.748 197.748C178.364 197.748 178.907 197.897 179.376 198.194C179.845 198.492 180.206 198.923 180.461 199.488C180.714 200.054 180.84 200.711 180.84 201.461V201.947Z" fill="#0B0B0C"/>
<path d="M179.832 201.451C179.832 200.539 179.649 199.839 179.284 199.351C178.917 198.863 178.406 198.619 177.748 198.619C177.107 198.619 176.603 198.863 176.236 199.351C175.868 199.839 175.679 200.515 175.668 201.382V201.947C175.668 202.83 175.854 203.525 176.225 204.03C176.597 204.535 177.107 204.787 177.758 204.787C178.412 204.787 178.92 204.549 179.278 204.072C179.637 203.595 179.822 202.911 179.832 202.02V201.451ZM180.84 201.947C180.84 202.7 180.714 203.358 180.461 203.92C180.206 204.48 179.848 204.909 179.384 205.205C178.92 205.501 178.377 205.648 177.758 205.648C177.154 205.648 176.616 205.5 176.148 205.202C175.68 204.905 175.318 204.48 175.059 203.93C174.8 203.379 174.667 202.74 174.66 202.015V201.461C174.66 200.722 174.788 200.068 175.045 199.501C175.302 198.935 175.666 198.501 176.135 198.2C176.604 197.899 177.142 197.748 177.748 197.748C178.364 197.748 178.907 197.897 179.376 198.194C179.845 198.492 180.206 198.923 180.461 199.488C180.714 200.054 180.84 200.711 180.84 201.461V201.947Z" fill="#0B0B0C" stroke="#0B0B0C" stroke-width="0.666667" stroke-miterlimit="10"/>
<path d="M186.919 195.937C186.919 196.365 186.775 196.708 186.484 196.968C186.193 197.227 185.813 197.358 185.341 197.358C184.869 197.358 184.488 197.227 184.196 196.966C183.904 196.704 183.758 196.361 183.758 195.937H184.555C184.555 196.183 184.622 196.377 184.755 196.516C184.889 196.654 185.084 196.724 185.341 196.724C185.587 196.724 185.78 196.656 185.92 196.518C186.058 196.38 186.127 196.187 186.127 195.937H186.919ZM187.204 197.854H188.217V205.543H187.204V199.618L183.42 205.543H182.401V197.854H183.42V203.779L187.204 197.854Z" fill="#0B0B0C"/>
<path d="M186.919 195.937C186.919 196.365 186.775 196.708 186.484 196.968C186.193 197.227 185.813 197.358 185.341 197.358C184.869 197.358 184.488 197.227 184.196 196.966C183.904 196.704 183.758 196.361 183.758 195.937H184.555C184.555 196.183 184.622 196.377 184.755 196.516C184.889 196.654 185.084 196.724 185.341 196.724C185.587 196.724 185.78 196.656 185.92 196.518C186.058 196.38 186.127 196.187 186.127 195.937H186.919ZM187.204 197.854H188.217V205.543H187.204V199.618L183.42 205.543H182.401V197.854H183.42V203.779L187.204 197.854Z" fill="#0B0B0C" stroke="#0B0B0C" stroke-width="0.666667" stroke-miterlimit="10"/>
<path d="M196.537 199.422V204.022H196.684C197.357 204.022 197.881 203.815 198.259 203.402C198.637 202.987 198.827 202.426 198.827 201.715C198.827 201.01 198.637 200.452 198.259 200.04C197.881 199.629 197.349 199.422 196.663 199.422H196.537ZM195.407 199.422C194.746 199.422 194.223 199.626 193.837 200.033C193.452 200.439 193.259 201.004 193.259 201.725C193.259 202.45 193.451 203.015 193.834 203.417C194.218 203.82 194.746 204.022 195.418 204.022H195.555V199.422H195.407ZM196.537 198.625H196.7C197.28 198.629 197.81 198.764 198.289 199.031C198.768 199.3 199.139 199.668 199.405 200.138C199.67 200.608 199.803 201.133 199.803 201.715C199.803 202.299 199.67 202.829 199.403 203.304C199.134 203.779 198.766 204.15 198.294 204.416C197.823 204.682 197.298 204.818 196.721 204.825H196.537V205.86H195.555V204.825H195.407C194.819 204.825 194.286 204.691 193.805 204.423C193.325 204.156 192.953 203.786 192.687 203.315C192.421 202.843 192.288 202.313 192.288 201.725C192.288 201.137 192.421 200.607 192.687 200.135C192.953 199.664 193.325 199.294 193.805 199.027C194.286 198.759 194.819 198.625 195.407 198.625H195.555V197.537H196.537V198.625Z" fill="#0B0B0C"/>
<path d="M196.537 199.422V204.022H196.684C197.357 204.022 197.881 203.815 198.259 203.402C198.637 202.987 198.827 202.426 198.827 201.715C198.827 201.01 198.637 200.452 198.259 200.04C197.881 199.629 197.349 199.422 196.663 199.422H196.537ZM195.407 199.422C194.746 199.422 194.223 199.626 193.837 200.033C193.452 200.439 193.259 201.004 193.259 201.725C193.259 202.45 193.451 203.015 193.834 203.417C194.218 203.82 194.746 204.022 195.418 204.022H195.555V199.422H195.407ZM196.537 198.625H196.7C197.28 198.629 197.81 198.764 198.289 199.031C198.768 199.3 199.139 199.668 199.405 200.138C199.67 200.608 199.803 201.133 199.803 201.715C199.803 202.299 199.67 202.829 199.403 203.304C199.134 203.779 198.766 204.15 198.294 204.416C197.823 204.682 197.298 204.818 196.721 204.825H196.537V205.86H195.555V204.825H195.407C194.819 204.825 194.286 204.691 193.805 204.423C193.325 204.156 192.953 203.786 192.687 203.315C192.421 202.843 192.288 202.313 192.288 201.725C192.288 201.137 192.421 200.607 192.687 200.135C192.953 199.664 193.325 199.294 193.805 199.027C194.286 198.759 194.819 198.625 195.407 198.625H195.555V197.537H196.537V198.625Z" fill="#0B0B0C" stroke="#0B0B0C" stroke-width="0.666667" stroke-miterlimit="10"/>
<path d="M205.423 201.989H202.093V204.714H205.962V205.543H201.08V197.854H205.909V198.683H202.093V201.16H205.423V201.989Z" fill="#0B0B0C"/>
<path d="M205.423 201.989H202.093V204.714H205.962V205.543H201.08V197.854H205.909V198.683H202.093V201.16H205.423V201.989Z" fill="#0B0B0C" stroke="#0B0B0C" stroke-width="0.666667" stroke-miterlimit="10"/>
<path d="M208.379 204.714H212.126V198.683H209.525L209.413 200.946C209.368 201.83 209.25 202.584 209.063 203.208C208.874 203.832 208.647 204.333 208.379 204.714ZM214.138 207.428H213.129V205.543H207.615V207.434H206.6L206.596 204.714H207.223C207.554 204.341 207.816 203.839 208.013 203.212C208.208 202.584 208.33 201.894 208.379 201.144L208.548 197.854H213.145V204.714H214.148L214.138 207.428Z" fill="#0B0B0C"/>
<path d="M208.379 204.714H212.126V198.683H209.525L209.413 200.946C209.368 201.83 209.25 202.584 209.063 203.208C208.874 203.832 208.647 204.333 208.379 204.714ZM214.138 207.428H213.129V205.543H207.615V207.434H206.6L206.596 204.714H207.223C207.554 204.341 207.816 203.839 208.013 203.212C208.208 202.584 208.33 201.894 208.379 201.144L208.548 197.854H213.145V204.714H214.148L214.138 207.428Z" fill="#0B0B0C" stroke="#0B0B0C" stroke-width="0.666667" stroke-miterlimit="10"/>
<path d="M219.694 201.989H216.363V204.714H220.233V205.543H215.351V197.854H220.18V198.683H216.363V201.16H219.694V201.989Z" fill="#0B0B0C"/>
<path d="M219.694 201.989H216.363V204.714H220.233V205.543H215.351V197.854H220.18V198.683H216.363V201.16H219.694V201.989Z" fill="#0B0B0C" stroke="#0B0B0C" stroke-width="0.666667" stroke-miterlimit="10"/>
<path d="M222.506 201.704H224.328C224.87 201.704 225.285 201.576 225.573 201.32C225.862 201.065 226.006 200.695 226.006 200.212C226.006 199.754 225.862 199.387 225.573 199.111C225.285 198.837 224.889 198.694 224.385 198.683H222.506V201.704ZM222.506 202.533V205.543H221.493V197.854H224.328C225.169 197.854 225.828 198.069 226.304 198.498C226.781 198.928 227.019 199.497 227.019 200.204C227.019 200.951 226.786 201.526 226.32 201.928C225.854 202.331 225.186 202.533 224.317 202.533H222.506Z" fill="#0B0B0C"/>
<path d="M222.506 201.704H224.328C224.87 201.704 225.285 201.576 225.573 201.32C225.862 201.065 226.006 200.695 226.006 200.212C226.006 199.754 225.862 199.387 225.573 199.111C225.285 198.837 224.889 198.694 224.385 198.683H222.506V201.704ZM222.506 202.533V205.543H221.493V197.854H224.328C225.169 197.854 225.828 198.069 226.304 198.498C226.781 198.928 227.019 199.497 227.019 200.204C227.019 200.951 226.786 201.526 226.32 201.928C225.854 202.331 225.186 202.533 224.317 202.533H222.506Z" fill="#0B0B0C" stroke="#0B0B0C" stroke-width="0.666667" stroke-miterlimit="10"/>
<path d="M228.915 202.702H231.527L230.218 199.106L228.915 202.702ZM231.828 203.531H228.609L227.886 205.543H226.841L229.775 197.854H230.662L233.602 205.543H232.562L231.828 203.531Z" fill="#0B0B0C"/>
<path d="M228.915 202.702H231.527L230.218 199.106L228.915 202.702ZM231.828 203.531H228.609L227.886 205.543H226.841L229.775 197.854H230.662L233.602 205.543H232.562L231.828 203.531Z" fill="#0B0B0C" stroke="#0B0B0C" stroke-width="0.666667" stroke-miterlimit="10"/>
<path d="M234.668 197.854H235.686V204.713H239.475V197.854H240.489V204.693H241.296L241.202 207.396H240.288V205.543H234.668V197.854Z" fill="#0B0B0C"/>
<path d="M234.668 197.854H235.686V204.713H239.475V197.854H240.489V204.693H241.296L241.202 207.396H240.288V205.543H234.668V197.854Z" fill="#0B0B0C" stroke="#0B0B0C" stroke-width="0.666667" stroke-miterlimit="10"/>
<path d="M247.38 197.854H248.394V205.543H247.38V199.619L243.596 205.543H242.577V197.854H243.596V203.779L247.38 197.854Z" fill="#0B0B0C"/>
<path d="M247.38 197.854H248.394V205.543H247.38V199.619L243.596 205.543H242.577V197.854H243.596V203.779L247.38 197.854Z" fill="#0B0B0C" stroke="#0B0B0C" stroke-width="0.666667" stroke-miterlimit="10"/>
<path d="M255.086 197.854H256.099V205.543H255.086V199.619L251.302 205.543H250.283V197.854H251.302V203.779L255.086 197.854Z" fill="#0B0B0C"/>
<path d="M255.086 197.854H256.099V205.543H255.086V199.619L251.302 205.543H250.283V197.854H251.302V203.779L255.086 197.854Z" fill="#0B0B0C" stroke="#0B0B0C" stroke-width="0.666667" stroke-miterlimit="10"/>
<path d="M119.39 120.169H137.706H149.19C152.608 107.991 155.119 81.8679 158.736 42.3822C154.294 54.7423 144.082 68.6003 144.082 68.6003C144.082 68.6003 134.517 104.55 119.39 120.169Z" fill="#0B0B0C"/>
<path d="M167.978 0C167.988 7.22202 164.887 25.7345 162.276 32.0868L157.042 120.168H160.646H168.155L167.978 0Z" fill="#0B0B0C"/>
<path d="M53.6621 119.619C83.5258 115.428 113.597 102.733 135.507 78.4967C133.172 87.1321 120.449 109.136 108.141 119.619H55.7033H53.6621Z" fill="#0B0B0C"/>
<path d="M53.6621 119.619C83.5258 115.428 113.597 102.733 135.507 78.4967C133.172 87.1321 120.449 109.136 108.141 119.619H55.7033H53.6621Z" stroke="#0B0B0C" stroke-width="1.33333"/>
</svg>
