<svg width="245" height="206" viewBox="0 0 245 206" fill="none" xmlns="http://www.w3.org/2000/svg">
<g clip-path="url(#clip0_170_3352)">
<path d="M221.924 70.472H227.247V92.924L238.607 70.472H244.254V104.215H238.963V82.1853L227.604 104.215H221.924V70.472ZM201.575 76.1173C201.575 86.3706 200.83 93.8653 199.271 98.5373H209.948V76.1173H201.575ZM196.188 70.472H215.595V98.5373H218.063V111.58H213.323V104.215H195.668V111.58H190.963V98.5373H193.332C194.5 95.6493 195.279 92.3066 195.636 88.4786C195.992 84.6826 196.188 79.848 196.188 74.04V70.472ZM179.051 90.848L175.156 78.324L171.392 90.848H179.051ZM189.47 104.215H183.303L180.87 96.5253H169.639L167.335 104.215H161.299L172.236 70.472H178.24L189.47 104.215ZM131.44 104.215V70.472H139.911L145.007 93.4746L150.036 70.472H158.54V104.215H153.282V77.6413L147.702 104.215H142.248L136.698 77.6413V104.215H131.44Z" fill="#0B0B0C"/>
<path d="M0 104.442V102.755H127.708V104.507C119.335 104.896 118.719 105.448 110.409 106.94C102.62 108.14 84.7707 118.75 83.6347 130.332H79.74C79.5453 118.199 72.3413 108.108 58.028 108.108C44.5267 108.108 32.7133 117.387 32.6493 130.332H29.1107C28.9493 118.003 14.2467 104.442 0 104.442Z" fill="#0B0B0C"/>
<path d="M73.5747 96.4674C73.5747 98.0754 72.2707 99.3794 70.6627 99.3794C69.0547 99.3794 67.7507 98.0754 67.7507 96.4674C67.7507 94.8594 69.0547 93.5554 70.6627 93.5554C72.2707 93.5554 73.5747 94.8594 73.5747 96.4674ZM70.6267 90.8274C67.488 90.8274 64.944 93.3714 64.944 96.5114C64.944 99.6501 67.488 102.194 70.6267 102.194C73.7653 102.194 76.3107 99.6501 76.3107 96.5114C76.3107 93.3714 73.7653 90.8274 70.6267 90.8274ZM58.6453 81.9261H76.0733V83.7434H58.6453V81.9261ZM28.496 89.6794L21.2907 89.6474L13.4693 93.9288H3.7L0 97.6274V99.4448H49.6893V97.0768L48.4867 96.8181V94.8061L41.12 93.6061L37.712 89.6794H32.9093L30.8 85.9808H45.5667L41.4773 83.0608V81.7621H46.572L53.032 90.3928L57.704 90.4581V87.3101H54.6853V85.9808H78.152L80.6827 88.2514L78.768 90.8474C74.5173 87.0701 66.2787 84.9354 61.632 93.4434L53.096 93.5088L46.3133 87.4408H40.2773V89.6794L42.3853 93.1514L46.572 93.2168L46.2147 90.4581C49.1053 91.4648 50.24 93.9288 50.7587 96.7528L64.1093 96.8181C64.1093 87.4661 77.4053 87.3674 77.4053 97.0114L79.1573 97.0768L84.2533 89.4194V87.9928L76.3987 78.8754H51.9613L50.7587 75.4034H35.5053L35.5373 77.5448H36.3507L37.94 83.2234L26.0613 83.1901V85.3328L28.496 89.6781V89.6794Z" fill="#0B0B0C"/>
<path d="M35.9925 61.4522C71.3365 -0.322487 157.243 -2.98249 189.859 61.4522H168.278C151.335 36.9562 134.623 24.6602 102.068 24.4002C69.5178 24.1415 42.1258 44.7108 33.0058 76.7668H27.9111C39.0765 31.7002 78.3458 0.845511 126.54 0.714844C177.17 1.75351 206.606 33.7122 219.328 61.4522H199.66C168.407 -7.72116 69.9391 -8.53181 35.9925 61.4522Z" fill="#0B0B0C"/>
<path d="M6.45898 100.027C6.74298 101.563 8.74432 102.263 10.759 102.199C12.7737 102.263 14.7763 101.563 15.0603 100.027H6.45898Z" fill="#0B0B0C"/>
<path d="M34.6309 100.027C34.9149 101.563 36.9162 102.263 38.9309 102.199C40.9455 102.263 42.9482 101.563 43.2322 100.027H34.6309Z" fill="#0B0B0C"/>
<path d="M173.681 181.392L171.064 179.507C179.77 176.516 187.868 172.211 195.116 166.826L196.254 167.468C189.489 173.136 181.896 177.847 173.681 181.392ZM137.718 188.675C136.904 188.675 135.696 188.863 134.888 188.842L138.62 184.236C139.802 184.283 141.388 184.11 142.582 184.11C150.744 184.11 158.25 183.206 165.757 181.146L168.118 183.58C158.492 187.007 148.521 188.675 137.718 188.675ZM127.864 188.392C113.417 186.915 99.961 182.086 88.2864 174.699L98.953 173.099C109.408 178.932 121.162 182.714 133.673 183.903L127.864 188.392ZM54.3597 136.462H63.3437C70.0397 149.311 79.7837 160.319 91.6183 168.524H79.669C69.0077 159.915 60.3117 148.967 54.3597 136.462ZM223.458 112.002C217.56 147.227 186.929 174.072 150.028 174.072C121.02 174.072 95.9237 157.482 83.6343 133.272H29.1104C41.689 174.888 80.3317 205.192 126.053 205.192C179.261 205.192 222.882 164.154 226.994 112.002H223.458Z" fill="#0B0B0C"/>
</g>
<defs>
<clipPath id="clip0_170_3352">
<rect width="245" height="206" fill="white"/>
</clipPath>
</defs>
</svg>
