<svg width="98" height="94" viewBox="0 0 98 94" fill="none" xmlns="http://www.w3.org/2000/svg">
<g clip-path="url(#clip0_170_3364)">
<path d="M68.4492 0.0437012H22.5626C23.263 14.4176 13.2185 23.3958 0.40332 25.5117C3.53932 57.8528 20.1691 81.7594 49.1118 93.8289C72.0341 84.1902 90.6605 65.7937 96.3049 39.9377C101.468 16.261 90.1172 0.0437012 68.4492 0.0437012Z" fill="white"/>
<path d="M92.8865 39.1836C87.995 62.0427 71.5431 80.3246 49.1118 90.0156C22.7818 78.6902 7.57385 56.2707 4.2601 28.2359C16.0819 25.1871 25.2173 16.3138 26.0323 3.46925H68.6163C89.4687 3.36504 97.2349 19.802 92.8865 39.1836ZM68.4482 0.0437012H22.5626C23.263 14.4176 13.2178 23.3958 0.40332 25.5117C3.53862 57.8528 20.1691 81.7594 49.1118 93.8289C72.0341 84.1902 90.6605 65.7937 96.3044 39.9377C101.468 16.261 90.1167 0.0437012 68.4482 0.0437012Z" fill="#0B0B0C"/>
<path d="M46.5615 55.8935H51.6097L49.2788 44.4634L46.5615 55.8935Z" fill="#0B0B0C"/>
<path d="M75.2321 34.6158L54.1705 36.2395L53.4076 33.0231H75.2321C75.6715 32.9217 76.1088 33.1963 76.21 33.6357C76.3111 34.0757 76.0382 34.5144 75.5988 34.6158C75.4781 34.6439 75.3533 34.6439 75.2321 34.6158ZM75.8907 51.2626C74.26 51.2626 74.2078 51.9125 74.2078 53.5467V61.1739C74.2078 62.8601 74.3127 63.4574 75.8907 63.4574V64.9973H69.2636V63.4574C70.7799 63.4574 70.9991 62.9129 70.9991 61.1739V55.2329L65.626 61.8546V62.1271C65.626 63.0486 66.1181 63.4362 67.3615 63.4362V64.9556H50.8573V63.4051C52.0488 63.4051 52.8117 63.2894 52.8117 62.1477C52.6663 60.6057 52.3937 59.0774 51.9968 57.5797H46.0177L45.2548 60.6289C44.7216 62.6404 44.8783 63.4051 47.0525 63.4051V64.9239H33.3072V63.4051C34.9378 63.4051 35.1049 62.8601 35.1049 61.1105V54.0389L30.9243 64.4317L26.691 53.7141V61.2779C26.691 62.7444 26.8476 63.3734 28.4782 63.3734V64.8927H23.3984V63.4051C25.1335 63.4051 25.1862 62.3574 25.1862 60.9014V53.4733C25.1862 52.1639 25.1862 51.1894 23.503 51.1894V49.6811H28.9383L31.865 57.5174L34.8022 49.6811H40.0281V51.2105C38.3976 51.2105 38.3351 51.8597 38.3351 53.4944V61.1105C38.3351 62.5876 38.5023 63.0169 38.9414 63.206C39.9136 63.5831 41.816 63.4785 42.359 62.389C42.8705 61.308 43.2695 60.1774 43.5505 59.0156L50.5749 31.2318L56.9298 58.4706C57.63 61.4042 57.9751 62.1688 58.6648 62.7656C59.355 63.3628 61.383 63.751 62.1354 62.9335C62.3024 62.7656 62.4073 62.4413 62.4073 61.1317V53.4733C62.4073 51.7344 62.3024 51.1894 60.6722 51.1894V49.6811H67.351V51.2105C65.7203 51.2105 65.6165 51.9125 65.6165 53.4944V59.4761L70.9886 52.8966V52.6772C70.9886 51.9646 70.5597 51.2626 69.253 51.2626V49.7332H75.8802V51.2626H75.8907ZM14.4722 33.0231H39.0144L50.6374 20.0222L45.6939 18.2203C45.1501 18.0105 45.2021 17.4655 45.6939 17.4655H51.1292L52.8117 11.7981C52.9165 11.4207 53.4076 11.5256 53.4076 11.7981L53.9513 17.4655H59.177C59.5537 17.4655 59.7102 17.9479 59.0099 18.2203L53.4698 20.1271L44.7736 33.0231H47.6482C47.3764 34.0708 47.0525 35.3178 46.676 36.7844L42.1082 37.1091L41.6172 37.8737C40.3211 39.4559 37.1647 43.4264 35.2729 43.8559C34.316 44.0186 33.4098 43.3736 33.2475 42.4153C33.1906 42.0766 33.2328 41.7295 33.3704 41.4147C33.799 39.9375 35.001 38.6912 35.7014 37.3816L14.3571 34.6158C13.3848 34.6158 13.4895 33.0231 14.4722 33.0231ZM68.616 6.63337H28.8027C26.9629 18.2725 18.6529 26.7163 7.71973 30.4249C11.4824 56.2701 25.9801 76.3016 49.1741 86.6416C69.5876 77.3387 85.0679 60.8069 89.8973 38.5237C93.6492 21.2164 87.451 6.51787 68.616 6.63337Z" fill="#0B0B0C"/>
</g>
<defs>
<clipPath id="clip0_170_3364">
<rect width="98" height="94" fill="white"/>
</clipPath>
</defs>
</svg>
