<svg width="96" height="39" viewBox="0 0 96 39" fill="none" xmlns="http://www.w3.org/2000/svg">
<g clip-path="url(#clip0_170_3360)">
<path fill-rule="evenodd" clip-rule="evenodd" d="M35.0428 25.085L44.3628 19.6191C44.1962 19.2998 44.0573 18.9622 43.9511 18.6099C40.482 19.603 37.0137 20.5962 33.5831 21.5885C33.8988 22.7941 34.4115 23.9601 35.0428 25.085ZM37.6072 28.6217L45.2268 20.8584C44.9846 20.5925 44.7671 20.304 44.5766 19.9956C41.4711 21.8669 38.3853 23.7572 35.2988 25.6072C35.9104 26.7124 36.6995 27.6975 37.6072 28.6217ZM40.9795 31.3345C39.8748 30.6915 38.869 29.9474 37.9817 29.0436C40.5024 26.4355 43.0035 23.7879 45.5235 21.1601C45.7868 21.4098 46.0733 21.6347 46.3795 21.831L40.9795 31.3345ZM44.9242 33.082C43.701 32.7407 42.5381 32.2984 41.4529 31.656C43.2311 28.4694 44.9715 25.2446 46.73 22.0382C47.0479 22.2118 47.3846 22.3554 47.7359 22.466L44.9242 33.082ZM49.1846 33.7251L49.2042 22.7194C48.837 22.7047 48.4791 22.6564 48.1329 22.5751C47.2355 26.1382 46.3751 29.7203 45.4762 33.2629C46.6791 33.5844 47.922 33.7053 49.1846 33.7251ZM53.4646 33.2226L50.6907 22.5809C50.3446 22.6608 49.986 22.7084 49.6195 22.7201C49.6588 26.4018 49.7373 30.0836 49.7759 33.7455C51.0188 33.7455 52.2413 33.5244 53.4646 33.2226ZM57.4685 31.6158C56.3634 32.2185 55.2392 32.7605 54.0362 33.082C53.0791 29.5599 52.0631 26.0173 51.0864 22.4748C51.4384 22.3663 51.7759 22.2243 52.0958 22.0521L57.4685 31.6158ZM60.9386 29.0033C60.0125 29.8668 59.0655 30.6915 57.9812 31.314C56.1615 28.1655 54.2842 25.0169 52.4449 21.8486C52.7519 21.6544 53.0392 21.4318 53.3032 21.1843L60.9386 29.0033ZM63.6217 25.5669L54.2617 20.0183C54.0682 20.3281 53.8471 20.6174 53.6013 20.884C56.1665 23.4561 58.789 26.0086 61.3532 28.5815C62.2406 27.6769 62.9514 26.6326 63.6217 25.5669ZM65.3372 21.5285L54.8906 18.6421C54.781 18.9988 54.6386 19.3401 54.4668 19.6631C57.5983 21.4567 60.787 23.2313 63.9168 25.0447C64.5485 23.9395 64.963 22.734 65.3372 21.5285ZM63.8983 8.72842L54.5002 14.1972C54.6681 14.5232 54.8072 14.8688 54.9136 15.2285C58.3685 14.2331 61.8632 13.1997 65.3176 12.2249C65.0023 10.9996 64.4503 9.83437 63.8983 8.72842ZM61.3336 5.19244L53.6471 12.9624C53.8915 13.2326 54.1097 13.5264 54.3002 13.8406C57.3883 11.9678 60.4946 10.0577 63.5819 8.20626C62.971 7.10108 62.1425 6.11674 61.3336 5.19244ZM57.9616 2.45987C58.9663 3.1432 60.0125 3.86607 60.8994 4.77058C58.3772 7.37935 55.8561 10.0482 53.3526 12.6585C53.0908 12.4073 52.8057 12.1817 52.501 11.9839L57.9616 2.45987ZM53.997 0.711646C55.141 1.09323 56.3437 1.51508 57.4281 2.15812C55.6499 5.34331 53.8915 8.5878 52.1519 11.7745C51.834 11.5987 51.498 11.4529 51.1475 11.3409L53.997 0.711646ZM49.7366 0.0686035L49.6777 11.0787C50.0449 11.0948 50.4035 11.1461 50.7504 11.2296C51.6282 7.68915 52.5075 4.09018 53.4049 0.550521C52.202 0.228999 50.9198 0.12866 49.7366 0.0686035ZM45.4566 0.571026L48.1853 11.2098C48.5329 11.1314 48.8929 11.0853 49.2609 11.075C49.202 7.41819 49.1438 3.72398 49.1053 0.0686035C47.8631 0.0686035 46.6006 0.309562 45.4566 0.571026ZM41.4333 2.17863C42.4784 1.61542 43.6421 1.05295 44.8449 0.731421C45.7999 4.24618 46.7933 7.79978 47.7875 11.3153C47.4333 11.4229 47.0929 11.5643 46.7715 11.7357L41.4333 2.17863ZM37.962 4.79035C38.8297 3.96641 39.8159 3.12269 40.9009 2.49942C42.7148 5.63918 44.5672 8.8185 46.4195 11.94C46.1104 12.1341 45.8209 12.3575 45.5547 12.6064L37.962 4.79035ZM35.2799 8.22675C35.9104 7.20215 36.6406 6.13651 37.5278 5.23272C40.0842 7.79681 42.6791 10.3815 45.2551 12.9075C45.0079 13.1748 44.7846 13.4655 44.5897 13.7775L35.2799 8.22675ZM46.5526 16.3014H55.1219C55.0995 16.0744 55.0641 15.851 55.0166 15.632L65.4757 12.8277C65.7321 14.0339 65.9688 15.2995 65.9688 16.5651C62.4386 16.6053 58.8681 16.6859 55.3575 16.7262V17.1678L65.9688 17.1883C65.9088 18.4341 65.8106 19.7202 65.4954 20.9462C62.0165 20.03 58.4797 19.1533 54.9997 18.2378C55.0565 17.9917 55.0979 17.7384 55.1235 17.4813H46.5526V16.3014ZM33.5635 12.3252L43.9584 15.1633C44.0653 14.8124 44.205 14.4763 44.3722 14.1577C41.2297 12.3487 38.0871 10.5784 34.9642 8.76874C34.3526 9.87392 33.8791 11.0596 33.5635 12.3252Z" fill="#0B0B0C"/>
<path fill-rule="evenodd" clip-rule="evenodd" d="M9.93841 0.29834H0.195138V1.62471H3.27223C4.17914 1.62471 4.17914 2.18719 4.17914 2.78995C4.17914 4.75935 4.29768 8.69745 4.29768 10.1044V26.0984L4.17914 29.5143C4.17914 31.5642 1.41841 31.8455 0.0765919 31.8455L-0.00195312 33.1719H10.1748L10.1355 31.8455C6.46714 31.8455 5.7173 30.4393 5.7173 29.5143V1.7851H5.83589L15.0271 33.1719H16.2497L24.8882 2.74967V29.5143C24.8882 31.8455 23.8235 31.8455 20.3522 31.8455V33.1719H33.7246L33.8031 31.8455C30.2133 31.8455 29.7406 31.8455 29.7406 29.5143V2.74967C29.7406 1.62471 30.4504 1.46431 34.0403 1.46431V0.29834H24.3362L17.078 24.8929L9.93841 0.29834ZM73.5847 3.2118C73.6044 2.42814 74.236 1.46431 75.4191 1.46431H77.9238V0.318847H64.4331V1.46431H67.51C68.6931 1.46431 69.1273 2.32781 69.1273 3.2118C69.1273 12.3748 69.2058 20.3923 69.1273 29.5348C69.1273 30.2181 69.1273 31.8455 67.5493 31.8455H64.4331V33.1916H77.9238V31.8455H75.2615C74.7487 31.8052 74.3342 31.5034 74.4918 31.1622L86.7793 3.83507C86.9571 3.51355 87.0356 3.91564 86.9767 5.02082C86.9767 13.3592 86.8191 21.176 86.8191 29.5348C86.8191 30.7806 86.2469 31.7854 85.4184 31.8455H82.4991L82.4996 33.1916H95.4967V31.8455H92.8344C91.612 31.5642 91.1582 30.7608 91.1582 29.5348V3.2118C91.4342 2.22747 92.2425 1.46431 92.6964 1.46431H95.4967V0.318847H82.4996V1.46431H85.774C86.2076 1.48409 86.3849 2.00628 86.1084 2.44865C83.8011 7.79369 75.9711 24.9536 73.7822 29.4542C73.624 29.5949 73.6436 29.3744 73.5847 29.5348V3.2118Z" fill="#0B0B0C"/>
<path fill-rule="evenodd" clip-rule="evenodd" d="M0.535156 36.6344H95.4609V38.8857H0.535156V36.6344Z" fill="#0B0B0C"/>
</g>
<defs>
<clipPath id="clip0_170_3360">
<rect width="96" height="39" fill="white"/>
</clipPath>
</defs>
</svg>
