<svg width="18" height="10" viewBox="0 0 18 10" fill="none" xmlns="http://www.w3.org/2000/svg">
<path d="M0.44479 2.59672L8.06107 9.51626C8.31594 9.7477 8.64789 9.87588 8.99218 9.87577C9.33641 9.87566 9.66835 9.74727 9.92307 9.51567L17.535 2.59132C17.672 2.46973 17.7835 2.32212 17.863 2.15715C17.9426 1.9921 17.9885 1.81288 17.9983 1.63C18.0081 1.44705 17.9815 1.26397 17.92 1.09143C17.8585 0.918816 17.7634 0.760197 17.6401 0.624636C17.5169 0.489144 17.368 0.379409 17.202 0.301866C17.036 0.224255 16.8563 0.180427 16.6733 0.172871C16.4902 0.165245 16.3075 0.194098 16.1357 0.257626C15.9639 0.321154 15.8064 0.41818 15.6723 0.543093L8.99116 6.62264L2.30614 0.549391C2.03355 0.307694 1.67668 0.183212 1.31294 0.202916C0.9492 0.222551 0.607864 0.384839 0.362913 0.654524C0.118032 0.92421 -0.0107428 1.27948 0.00460036 1.6435C0.0198743 2.00745 0.17808 2.35073 0.44479 2.59886L0.44479 2.59672Z" fill="#1E3A8F"/>
</svg>
