<svg width="178" height="55" viewBox="0 0 178 55" fill="none" xmlns="http://www.w3.org/2000/svg">
<path d="M31.9728 6.32227C38.0896 6.32227 43.017 11.2497 43.017 17.3665C43.017 23.4833 38.0896 28.4107 31.9728 28.4107C25.856 28.4107 20.9286 23.4833 20.9286 17.3665C20.9286 11.2497 25.856 6.32227 31.9728 6.32227ZM31.9728 26.7116C37.1551 26.7116 41.3179 22.5487 41.3179 17.3665C41.3179 12.1842 37.1551 8.02137 31.9728 8.02137C26.7905 8.02137 22.6277 12.1842 22.6277 17.3665C22.6277 22.5487 26.7905 26.7116 31.9728 26.7116Z" fill="#464F6A"/>
<path d="M31.9728 28.44C29.0067 28.44 26.2217 27.2912 24.1347 25.2043C22.0478 23.1173 20.899 20.3323 20.899 17.3662C20.899 14.4002 22.0478 11.6151 24.1347 9.52817C26.2254 7.44122 29.0067 6.29248 31.9728 6.29248C34.9388 6.29248 37.7239 7.44122 39.8108 9.52817C41.8978 11.6151 43.0465 14.4002 43.0465 17.3662C43.0465 20.3323 41.8978 23.1173 39.8108 25.2043C37.7239 27.2912 34.9388 28.44 31.9728 28.44ZM31.9728 6.35158C29.0215 6.35158 26.2549 7.49663 24.179 9.5725C22.1032 11.6484 20.9581 14.4186 20.9581 17.3662C20.9581 20.3175 22.1032 23.0841 24.179 25.16C26.2549 27.2358 29.0252 28.3809 31.9728 28.3809C34.9241 28.3809 37.6906 27.2358 39.7665 25.16C41.8424 23.0841 42.9874 20.3138 42.9874 17.3662C42.9874 14.415 41.8424 11.6484 39.7665 9.5725C37.6943 7.49294 34.9241 6.35158 31.9728 6.35158ZM31.9728 26.7409C29.4574 26.7409 27.1008 25.7694 25.3352 24.0038C23.5696 22.2382 22.5981 19.8816 22.5981 17.3662C22.5981 14.8508 23.5696 12.4942 25.3352 10.7286C27.1008 8.96303 29.4574 7.99159 31.9728 7.99159C34.4882 7.99159 36.8448 8.96303 38.6104 10.7286C40.376 12.4942 41.3474 14.8508 41.3474 17.3662C41.3474 19.8816 40.376 22.2382 38.6104 24.0038C36.8448 25.7694 34.4882 26.7409 31.9728 26.7409ZM31.9728 8.05069C29.4758 8.05069 27.1303 9.01844 25.3795 10.773C23.625 12.5275 22.6572 14.8693 22.6572 17.3662C22.6572 19.8632 23.625 22.205 25.3795 23.9595C27.134 25.714 29.4758 26.6818 31.9728 26.6818C34.4697 26.6818 36.8115 25.714 38.5661 23.9595C40.3206 22.205 41.2883 19.8632 41.2883 17.3662C41.2883 14.8693 40.3206 12.5275 38.5661 10.773C36.8152 9.01475 34.4734 8.05069 31.9728 8.05069Z" fill="#464F6A"/>
<path d="M68.0936 6.24463V28.4808H66.3169V7.93266H50.3047V28.4808H48.5243V6.24463H68.0936Z" fill="#464F6A"/>
<path d="M68.1231 28.5104H66.2837V7.96225H50.3305V28.5104H48.4911V6.21143H68.1194V28.5104H68.1231ZM66.3465 28.4513H68.064V6.27422H48.5538V28.455H50.2714V7.90315H66.3428V28.4513H66.3465Z" fill="#464F6A"/>
<path d="M76.6408 28.4808H74.8642V6.24463H76.6408V24.0336L92.6531 8.46824V6.24463H94.4335V28.4808H92.6531V10.6919L76.6408 26.2572V28.4808Z" fill="#464F6A"/>
<path d="M94.463 28.5102H92.6235V10.7619L76.6704 26.2718V28.5138H74.8309V6.21121H76.6704V23.9595L92.6235 8.4496V6.20752H94.463V28.5102ZM92.6826 28.4511H94.4002V6.27401H92.6826V8.47915L92.6752 8.48654L76.6113 24.1036V6.27401H74.8937V28.4548H76.6113V26.2496L76.6187 26.2422L92.6826 10.6252V28.4511Z" fill="#464F6A"/>
<path d="M150.471 8.91149V28.4808H148.694V6.24463H150.471L162.926 21.4553L175.381 6.24463H177.158V28.4808H175.381V8.91149L162.926 24.1222L150.471 8.91149Z" fill="#464F6A"/>
<path d="M177.187 28.5104H175.348V8.99649L162.926 24.1703L162.904 24.1407L150.504 8.99279V28.5104H148.665V6.21143H150.489L150.497 6.22251L162.926 21.4074L175.366 6.21512H177.191V28.5104H177.187ZM175.411 28.4513H177.128V6.27422H175.392L162.922 21.5034L162.9 21.4738L150.456 6.27422H148.72V28.455H150.438V8.82657L162.922 24.0742L175.407 8.82657V28.4513H175.411Z" fill="#464F6A"/>
<path d="M0.871716 6.25181H3.15443V28.4806H0.871716V6.25181ZM4.36227 17.0818L14.5643 6.25181L16.3188 6.24072L6.83337 16.4317L18.391 28.4806H15.3695L4.36227 17.0818Z" fill="#464F6A"/>
<path d="M18.4612 28.5104H15.3585L4.32164 17.082L4.34011 17.0599L14.5532 6.22251L16.389 6.21143L6.874 16.4319L18.4612 28.5104ZM15.3843 28.4513H18.3208L6.79274 16.4319L6.81121 16.4098L16.2523 6.27422L14.5828 6.2853L4.4066 17.082L15.3843 28.4513ZM3.18398 28.5104H0.842167V6.22251H3.18398V28.5104ZM0.90496 28.4513H3.12857V6.28161H0.90496V28.4513Z" fill="#464F6A"/>
<path d="M101.344 6.25181H103.627V28.4806H101.344V6.25181ZM104.835 17.0818L115.037 6.25181L116.791 6.24072L107.306 16.4317L118.864 28.4806H115.842L104.835 17.0818Z" fill="#464F6A"/>
<path d="M118.934 28.5104H115.831L104.794 17.082L104.813 17.0599L115.026 6.22251L116.862 6.21143L107.347 16.4319L118.934 28.5104ZM115.857 28.4513H118.793L107.265 16.4319L107.284 16.4098L116.725 6.27053L115.055 6.28161L104.879 17.0783L115.857 28.4513ZM103.657 28.5104H101.315V6.22251H103.657V28.5104ZM101.378 28.4513H103.601V6.28161H101.378V28.4513Z" fill="#464F6A"/>
<path d="M132.102 6.35156C138.533 6.35156 143.711 11.5301 143.711 17.9609C143.711 24.3917 138.529 29.5702 132.102 29.5702C125.671 29.5702 120.493 24.388 120.493 17.9609C120.489 11.5301 125.671 6.35156 132.102 6.35156Z" fill="#1E3A8F"/>
<path d="M13.1976 41.782V44.6742H13.4857L15.9938 41.782H17.4676L14.5606 44.7961C15.6355 44.9069 16.2819 45.6235 16.8064 46.8202C16.9874 47.2598 17.2201 47.9099 17.523 48.4455H16.256C16.0787 48.1574 15.8423 47.6329 15.6355 47.0825C15.1812 46.0076 14.5606 45.5127 13.4303 45.5127H13.1976V48.4455H12.0009V41.7783H13.1976V41.782Z" fill="#464F6A"/>
<path d="M24.7294 45.0581C24.7294 47.5218 23.0229 48.5967 21.4088 48.5967C19.6025 48.5967 18.2137 47.2744 18.2137 45.1689C18.2137 42.9379 19.6727 41.6304 21.5196 41.6304C23.4366 41.6304 24.7294 43.0192 24.7294 45.0581ZM19.44 45.1283C19.44 46.5873 20.2822 47.6918 21.4642 47.6918C22.6203 47.6918 23.4883 46.6021 23.4883 45.1025C23.4883 43.9722 22.9232 42.539 21.49 42.539C20.0606 42.539 19.44 43.8614 19.44 45.1283Z" fill="#464F6A"/>
<path d="M31.9248 41.7817V48.4489H30.7095V42.7458H27.6105V48.4489H26.4137V41.7817H31.9248Z" fill="#464F6A"/>
<path d="M35.19 41.7817V44.5927C35.19 45.6527 35.1752 46.3139 35.1198 47.2669L35.1605 47.2817C35.5594 46.4691 35.7958 46 36.2353 45.228L38.3149 41.7854H39.7333V48.4526H38.5771V45.6269C38.5771 44.5372 38.603 43.9758 38.6584 42.9009H38.6178C38.1893 43.7542 37.9012 44.2935 37.517 44.9657C36.8817 46 36.1541 47.278 35.4375 48.4489H34.0449V41.7817H35.19Z" fill="#464F6A"/>
<path d="M43.0613 41.7817V47.4959H46.1308V41.7817H47.3312V47.5365L48.0183 47.5513L47.9518 50.5691H47.0136L46.9582 48.4489H41.8608V41.7817H43.0613Z" fill="#464F6A"/>
<path d="M50.2677 45.3354C50.2936 46.9754 51.3426 47.6513 52.5541 47.6513C53.4222 47.6513 53.9467 47.4999 54.401 47.3078L54.6078 48.1758C54.1794 48.3679 53.4517 48.5895 52.3916 48.5895C50.3379 48.5895 49.1116 47.2376 49.1116 45.2283C49.1116 43.2189 50.2973 41.6343 52.2402 41.6343C54.4158 41.6343 54.9957 43.5476 54.9957 44.7739C54.9957 45.0214 54.9661 45.2135 54.9551 45.3391H50.2677V45.3354ZM53.8211 44.4674C53.8359 43.6954 53.5034 42.4986 52.1404 42.4986C50.9141 42.4986 50.3785 43.6289 50.2825 44.4674H53.8211Z" fill="#464F6A"/>
<path d="M57.8472 41.7817V44.4671H61.0164V41.7817H62.2132V48.4489H61.0164V45.4311H57.8472V48.4489H56.6505V41.7817H57.8472Z" fill="#464F6A"/>
<path d="M68.8434 41.7817V42.7458H66.7639V48.4489H65.5634V42.7458H63.4838V41.7817H68.8434Z" fill="#464F6A"/>
<path d="M70.0845 43.9574C70.0845 43.1042 70.0586 42.4171 70.0291 41.7818H71.1187L71.1741 42.9232H71.2C71.695 42.1106 72.4817 41.6304 73.5677 41.6304C75.1781 41.6304 76.3934 42.9934 76.3934 45.0175C76.3934 47.4147 74.9343 48.5967 73.3645 48.5967C72.4817 48.5967 71.7097 48.2126 71.3108 47.5514H71.285V51.1749H70.0882V43.9574H70.0845ZM71.285 45.7341C71.285 45.9114 71.3108 46.0776 71.3404 46.229C71.562 47.0675 72.2896 47.6474 73.1577 47.6474C74.4394 47.6474 75.1818 46.5984 75.1818 45.0729C75.1818 43.7358 74.48 42.5944 73.1983 42.5944C72.3709 42.5944 71.5989 43.1891 71.3662 44.0978C71.3256 44.2492 71.285 44.4302 71.285 44.5927V45.7341Z" fill="#464F6A"/>
<path d="M86.3701 41.7817V47.5402L87.0571 47.555L86.9869 50.5691H86.0376L85.9822 48.4489H81.3725L81.3171 50.5691H80.3678L80.3124 47.555L80.8775 47.5402C81.1656 47.1155 81.3873 46.6574 81.5387 46.1773C81.801 45.3499 81.9228 44.456 81.9228 43.5178V41.7817H86.3701ZM82.9977 43.8059C82.9977 44.6887 82.8721 45.5419 82.6542 46.2844C82.5175 46.7387 82.3255 47.1524 82.1186 47.5255H85.1918V42.7052H82.9977V43.8059Z" fill="#464F6A"/>
<path d="M93.8129 41.7817V48.4489H92.6161V42.731H90.3297V44.4671C90.3297 46.3398 90.1524 47.5956 89.2844 48.1571C88.9557 48.4193 88.5826 48.5708 87.9621 48.5708L87.8365 47.6215C88.0692 47.5809 88.3314 47.4848 88.4977 47.3482C89.1182 46.8938 89.1847 45.9556 89.1847 44.4708V41.7854H93.8129V41.7817Z" fill="#464F6A"/>
<path d="M100.897 48.4492H99.7007V45.653H98.8068C98.2971 45.653 97.9536 45.7897 97.6913 46.0224C97.1963 46.4213 97.0154 47.2487 96.7531 47.8951C96.6718 48.102 96.5758 48.2792 96.4761 48.4455H95.1796C95.331 48.2238 95.4677 47.9764 95.5933 47.6883C95.8814 47.0419 96.0476 46.1738 96.6386 45.6752C96.8454 45.4979 97.0929 45.3464 97.3958 45.291V45.2504C96.5278 45.1544 95.6339 44.6151 95.6339 43.5956C95.6339 42.9086 96.007 42.4395 96.5167 42.1477C97.0671 41.83 97.8797 41.6934 98.7477 41.6934C99.5455 41.6934 100.318 41.7635 100.897 41.83V48.4492ZM99.697 42.5799C99.3941 42.5392 99.1171 42.5097 98.6923 42.5097C97.8649 42.5097 96.8861 42.7424 96.8861 43.6658C96.8861 44.5191 97.9462 44.8219 98.6628 44.8219H99.697V42.5799Z" fill="#464F6A"/>
<path d="M110.9 48.1979C110.582 48.3642 109.881 48.5821 108.987 48.5821C106.977 48.5821 105.666 47.2191 105.666 45.1802C105.666 43.1265 107.07 41.6416 109.249 41.6416C109.966 41.6416 110.597 41.8226 110.93 41.9851L110.653 42.9233C110.364 42.7571 109.91 42.6057 109.249 42.6057C107.72 42.6057 106.892 43.7359 106.892 45.1248C106.892 46.6687 107.886 47.618 109.208 47.618C109.895 47.618 110.353 47.437 110.697 47.2856L110.9 48.1979Z" fill="#464F6A"/>
<path d="M117.227 41.7817V42.7458H115.148V48.4489H113.947V42.7458H111.868V41.7817H117.227Z" fill="#464F6A"/>
<path d="M119.2 41.7817L120.659 45.7192C120.81 46.1588 120.976 46.6833 121.087 47.0822H121.113C121.239 46.6833 121.375 46.1736 121.542 45.6934L122.864 41.7817H124.146L122.328 46.5319C121.46 48.8183 120.869 49.9892 120.042 50.7057C119.451 51.2303 118.856 51.4371 118.553 51.4925L118.251 50.473C118.553 50.377 118.952 50.1849 119.311 49.882C119.639 49.6198 120.053 49.1507 120.33 48.5338C120.385 48.4083 120.426 48.3122 120.426 48.2457C120.426 48.1756 120.4 48.0795 120.345 47.9281L117.877 41.7854H119.2V41.7817Z" fill="#464F6A"/>
<path d="M130.318 41.7817V47.5402L131.005 47.555L130.935 50.5691H129.985L129.93 48.4489H125.317L125.261 50.5691H124.312L124.256 47.555L124.822 47.5402C125.11 47.1155 125.331 46.6574 125.483 46.1773C125.745 45.3499 125.867 44.456 125.867 43.5178V41.7817H130.318ZM126.942 43.8059C126.942 44.6887 126.816 45.5419 126.598 46.2844C126.462 46.7387 126.27 47.1524 126.063 47.5255H129.136V42.7052H126.946V43.8059H126.942Z" fill="#464F6A"/>
<path d="M133.254 45.3354C133.28 46.9754 134.329 47.6513 135.541 47.6513C136.409 47.6513 136.933 47.4999 137.388 47.3078L137.594 48.1758C137.166 48.3679 136.438 48.5895 135.378 48.5895C133.325 48.5895 132.102 47.2376 132.102 45.2283C132.102 43.2189 133.288 41.6343 135.227 41.6343C137.402 41.6343 137.982 43.5476 137.982 44.7739C137.982 45.0214 137.953 45.2135 137.942 45.3391H133.254V45.3354ZM136.808 44.4674C136.822 43.6954 136.49 42.4986 135.127 42.4986C133.901 42.4986 133.365 43.6289 133.269 44.4674H136.808Z" fill="#464F6A"/>
<path d="M140.834 41.7817V44.4671H144.003V41.7817H145.2V48.4489H144.003V45.4311H140.834V48.4489H139.637V41.7817H140.834Z" fill="#464F6A"/>
<path d="M151.83 41.7817V42.7458H149.75V48.4489H148.554V42.7458H146.474V41.7817H151.83Z" fill="#464F6A"/>
<path d="M158.926 45.0581C158.926 47.5218 157.219 48.5967 155.605 48.5967C153.799 48.5967 152.41 47.2744 152.41 45.1689C152.41 42.9379 153.869 41.6304 155.716 41.6304C157.633 41.6304 158.926 43.0192 158.926 45.0581ZM153.636 45.1283C153.636 46.5873 154.478 47.6918 155.66 47.6918C156.817 47.6918 157.685 46.6021 157.685 45.1025C157.685 43.9722 157.119 42.539 155.686 42.539C154.257 42.539 153.636 43.8614 153.636 45.1283Z" fill="#464F6A"/>
<path d="M160.61 41.8629C161.079 41.7816 161.947 41.7114 162.73 41.7114C163.846 41.7114 165.693 41.8924 165.693 43.3773C165.693 44.2047 165.057 44.7144 164.3 44.8806V44.9102C165.279 45.0468 165.995 45.5972 165.995 46.5613C165.995 48.3121 163.79 48.53 162.483 48.53C161.74 48.53 160.968 48.4746 160.61 48.4488V41.8629ZM161.755 47.6472C162.099 47.6879 162.346 47.7026 162.734 47.7026C163.547 47.7026 164.758 47.5106 164.758 46.5465C164.758 45.5824 163.794 45.3756 162.638 45.3756H161.755V47.6472ZM161.77 44.5777H162.678C163.572 44.5777 164.496 44.3155 164.496 43.5324C164.496 42.8712 163.916 42.5536 162.704 42.5536C162.305 42.5536 162.058 42.5794 161.766 42.609V44.5777H161.77Z" fill="#464F6A"/>
</svg>
