<svg width="178" height="55" viewBox="0 0 178 55" fill="none" xmlns="http://www.w3.org/2000/svg">
<path d="M31.9729 6.32227C38.0897 6.32227 43.0171 11.2497 43.0171 17.3665C43.0171 23.4833 38.0897 28.4107 31.9729 28.4107C25.8561 28.4107 20.9287 23.4833 20.9287 17.3665C20.9287 11.2497 25.8561 6.32227 31.9729 6.32227ZM31.9729 26.7116C37.1552 26.7116 41.318 22.5487 41.318 17.3665C41.318 12.1842 37.1552 8.02137 31.9729 8.02137C26.7906 8.02137 22.6278 12.1842 22.6278 17.3665C22.6278 22.5487 26.7906 26.7116 31.9729 26.7116Z" fill="white"/>
<path d="M31.9727 28.44C29.0066 28.44 26.2216 27.2912 24.1346 25.2043C22.0477 23.1173 20.8989 20.3323 20.8989 17.3662C20.8989 14.4002 22.0477 11.6151 24.1346 9.52817C26.2253 7.44122 29.0066 6.29248 31.9727 6.29248C34.9387 6.29248 37.7238 7.44122 39.8107 9.52817C41.8977 11.6151 43.0464 14.4002 43.0464 17.3662C43.0464 20.3323 41.8977 23.1173 39.8107 25.2043C37.7238 27.2912 34.9387 28.44 31.9727 28.44ZM31.9727 6.35158C29.0214 6.35158 26.2548 7.49663 24.1789 9.5725C22.1031 11.6484 20.958 14.4186 20.958 17.3662C20.958 20.3175 22.1031 23.0841 24.1789 25.16C26.2548 27.2358 29.0251 28.3809 31.9727 28.3809C34.924 28.3809 37.6905 27.2358 39.7664 25.16C41.8423 23.0841 42.9873 20.3138 42.9873 17.3662C42.9873 14.415 41.8423 11.6484 39.7664 9.5725C37.6942 7.49294 34.924 6.35158 31.9727 6.35158ZM31.9727 26.7409C29.4573 26.7409 27.1007 25.7694 25.3351 24.0038C23.5695 22.2382 22.598 19.8816 22.598 17.3662C22.598 14.8508 23.5695 12.4942 25.3351 10.7286C27.1007 8.96303 29.4573 7.99159 31.9727 7.99159C34.4881 7.99159 36.8447 8.96303 38.6103 10.7286C40.3759 12.4942 41.3473 14.8508 41.3473 17.3662C41.3473 19.8816 40.3759 22.2382 38.6103 24.0038C36.8447 25.7694 34.4881 26.7409 31.9727 26.7409ZM31.9727 8.05069C29.4757 8.05069 27.1302 9.01844 25.3794 10.773C23.6249 12.5275 22.6571 14.8693 22.6571 17.3662C22.6571 19.8632 23.6249 22.205 25.3794 23.9595C27.1339 25.714 29.4757 26.6818 31.9727 26.6818C34.4696 26.6818 36.8114 25.714 38.566 23.9595C40.3205 22.205 41.2882 19.8632 41.2882 17.3662C41.2882 14.8693 40.3205 12.5275 38.566 10.773C36.8151 9.01475 34.4733 8.05069 31.9727 8.05069Z" fill="#464F6A"/>
<path d="M68.0937 6.24463V28.4808H66.317V7.93266H50.3048V28.4808H48.5244V6.24463H68.0937Z" fill="white"/>
<path d="M68.1232 28.5104H66.2838V7.96225H50.3306V28.5104H48.4912V6.21143H68.1195V28.5104H68.1232ZM66.3466 28.4513H68.0641V6.27422H48.5539V28.455H50.2715V7.90315H66.3429V28.4513H66.3466Z" fill="#464F6A"/>
<path d="M76.6409 28.4808H74.8643V6.24463H76.6409V24.0336L92.6532 8.46824V6.24463H94.4336V28.4808H92.6532V10.6919L76.6409 26.2572V28.4808Z" fill="white"/>
<path d="M94.4632 28.5102H92.6236V10.7619L76.6706 26.2718V28.5138H74.8311V6.21121H76.6706V23.9595L92.6236 8.4496V6.20752H94.4632V28.5102ZM92.6828 28.4511H94.4004V6.27401H92.6828V8.47915L92.6754 8.48654L76.6115 24.1036V6.27401H74.8939V28.4548H76.6115V26.2496L76.6189 26.2422L92.6828 10.6252V28.4511Z" fill="#464F6A"/>
<path d="M150.471 8.91149V28.4808H148.694V6.24463H150.471L162.926 21.4553L175.381 6.24463H177.158V28.4808H175.381V8.91149L162.926 24.1222L150.471 8.91149Z" fill="white"/>
<path d="M177.187 28.5104H175.348V8.99649L162.926 24.1703L162.904 24.1407L150.504 8.99279V28.5104H148.665V6.21143H150.489L150.497 6.22251L162.926 21.4074L175.366 6.21512H177.191V28.5104H177.187ZM175.411 28.4513H177.128V6.27422H175.392L162.922 21.5034L162.9 21.4738L150.456 6.27422H148.72V28.455H150.438V8.82657L162.922 24.0742L175.407 8.82657V28.4513H175.411Z" fill="#464F6A"/>
<path d="M0.871582 6.25181H3.1543V28.4806H0.871582V6.25181ZM4.36214 17.0818L14.5642 6.25181L16.3187 6.24072L6.83324 16.4317L18.3909 28.4806H15.3694L4.36214 17.0818Z" fill="white"/>
<path d="M18.4613 28.5104H15.3586L4.32176 17.082L4.34023 17.0599L14.5533 6.22251L16.3891 6.21143L6.87412 16.4319L18.4613 28.5104ZM15.3844 28.4513H18.3209L6.79286 16.4319L6.81133 16.4098L16.2524 6.27422L14.5829 6.2853L4.40672 17.082L15.3844 28.4513ZM3.1841 28.5104H0.842285V6.22251H3.1841V28.5104ZM0.905078 28.4513H3.12869V6.28161H0.905078V28.4513Z" fill="#464F6A"/>
<path d="M101.344 6.25181H103.627V28.4806H101.344V6.25181ZM104.835 17.0818L115.037 6.25181L116.791 6.24072L107.306 16.4317L118.864 28.4806H115.842L104.835 17.0818Z" fill="white"/>
<path d="M118.934 28.5104H115.831L104.794 17.082L104.813 17.0599L115.026 6.22251L116.862 6.21143L107.347 16.4319L118.934 28.5104ZM115.857 28.4513H118.793L107.265 16.4319L107.284 16.4098L116.725 6.27053L115.055 6.28161L104.879 17.0783L115.857 28.4513ZM103.657 28.5104H101.315V6.22251H103.657V28.5104ZM101.378 28.4513H103.601V6.28161H101.378V28.4513Z" fill="#464F6A"/>
<path d="M132.102 6.35156C138.533 6.35156 143.711 11.5301 143.711 17.9609C143.711 24.3917 138.529 29.5702 132.102 29.5702C125.671 29.5702 120.493 24.388 120.493 17.9609C120.489 11.5301 125.671 6.35156 132.102 6.35156Z" fill="#1E3A8F"/>
<path d="M13.1977 41.782V44.6742H13.4858L15.9939 41.782H17.4677L14.5607 44.7961C15.6356 44.9069 16.282 45.6235 16.8065 46.8202C16.9875 47.2598 17.2202 47.9099 17.5231 48.4455H16.2561C16.0788 48.1574 15.8424 47.6329 15.6356 47.0825C15.1813 46.0076 14.5607 45.5127 13.4304 45.5127H13.1977V48.4455H12.001V41.7783H13.1977V41.782Z" fill="white"/>
<path d="M24.7296 45.0581C24.7296 47.5218 23.0231 48.5967 21.409 48.5967C19.6027 48.5967 18.2139 47.2744 18.2139 45.1689C18.2139 42.9379 19.6729 41.6304 21.5198 41.6304C23.4368 41.6304 24.7296 43.0192 24.7296 45.0581ZM19.4402 45.1283C19.4402 46.5873 20.2824 47.6918 21.4644 47.6918C22.6205 47.6918 23.4885 46.6021 23.4885 45.1025C23.4885 43.9722 22.9234 42.539 21.4902 42.539C20.0608 42.539 19.4402 43.8614 19.4402 45.1283Z" fill="white"/>
<path d="M31.9247 41.7817V48.4489H30.7094V42.7458H27.6104V48.4489H26.4136V41.7817H31.9247Z" fill="white"/>
<path d="M35.19 41.7817V44.5927C35.19 45.6527 35.1752 46.3139 35.1198 47.2669L35.1605 47.2817C35.5594 46.4691 35.7958 46 36.2353 45.228L38.3149 41.7854H39.7333V48.4526H38.5771V45.6269C38.5771 44.5372 38.603 43.9758 38.6584 42.9009H38.6178C38.1893 43.7542 37.9012 44.2935 37.517 44.9657C36.8817 46 36.1541 47.278 35.4375 48.4489H34.0449V41.7817H35.19Z" fill="white"/>
<path d="M43.0613 41.7817V47.4959H46.1308V41.7817H47.3312V47.5365L48.0183 47.5513L47.9518 50.5691H47.0136L46.9582 48.4489H41.8608V41.7817H43.0613Z" fill="white"/>
<path d="M50.2679 45.3354C50.2938 46.9754 51.3428 47.6513 52.5543 47.6513C53.4224 47.6513 53.9469 47.4999 54.4012 47.3078L54.608 48.1758C54.1796 48.3679 53.4519 48.5895 52.3918 48.5895C50.3381 48.5895 49.1118 47.2376 49.1118 45.2283C49.1118 43.2189 50.2975 41.6343 52.2404 41.6343C54.416 41.6343 54.9959 43.5476 54.9959 44.7739C54.9959 45.0214 54.9663 45.2135 54.9553 45.3391H50.2679V45.3354ZM53.8213 44.4674C53.8361 43.6954 53.5036 42.4986 52.1406 42.4986C50.9143 42.4986 50.3787 43.6289 50.2827 44.4674H53.8213Z" fill="white"/>
<path d="M57.8471 41.7817V44.4671H61.0163V41.7817H62.2131V48.4489H61.0163V45.4311H57.8471V48.4489H56.6504V41.7817H57.8471Z" fill="white"/>
<path d="M68.8435 41.7817V42.7458H66.764V48.4489H65.5635V42.7458H63.4839V41.7817H68.8435Z" fill="white"/>
<path d="M70.0847 43.9574C70.0847 43.1042 70.0588 42.4171 70.0293 41.7818H71.1189L71.1743 42.9232H71.2002C71.6952 42.1106 72.4819 41.6304 73.5679 41.6304C75.1783 41.6304 76.3936 42.9934 76.3936 45.0175C76.3936 47.4147 74.9345 48.5967 73.3647 48.5967C72.4819 48.5967 71.7099 48.2126 71.311 47.5514H71.2852V51.1749H70.0884V43.9574H70.0847ZM71.2852 45.7341C71.2852 45.9114 71.311 46.0776 71.3406 46.229C71.5622 47.0675 72.2898 47.6474 73.1579 47.6474C74.4396 47.6474 75.182 46.5984 75.182 45.0729C75.182 43.7358 74.4802 42.5944 73.1985 42.5944C72.3711 42.5944 71.5991 43.1891 71.3664 44.0978C71.3258 44.2492 71.2852 44.4302 71.2852 44.5927V45.7341Z" fill="white"/>
<path d="M86.3702 41.7817V47.5402L87.0572 47.555L86.987 50.5691H86.0377L85.9823 48.4489H81.3726L81.3172 50.5691H80.3679L80.3125 47.555L80.8776 47.5402C81.1657 47.1155 81.3874 46.6574 81.5388 46.1773C81.8011 45.3499 81.9229 44.456 81.9229 43.5178V41.7817H86.3702ZM82.9978 43.8059C82.9978 44.6887 82.8722 45.5419 82.6543 46.2844C82.5176 46.7387 82.3256 47.1524 82.1187 47.5255H85.1919V42.7052H82.9978V43.8059Z" fill="white"/>
<path d="M93.8128 41.7817V48.4489H92.616V42.731H90.3296V44.4671C90.3296 46.3398 90.1523 47.5956 89.2843 48.1571C88.9556 48.4193 88.5825 48.5708 87.962 48.5708L87.8364 47.6215C88.0691 47.5809 88.3313 47.4848 88.4976 47.3482C89.1181 46.8938 89.1846 45.9556 89.1846 44.4708V41.7854H93.8128V41.7817Z" fill="white"/>
<path d="M100.897 48.4492H99.7008V45.653H98.8069C98.2972 45.653 97.9537 45.7897 97.6914 46.0224C97.1964 46.4213 97.0155 47.2487 96.7532 47.8951C96.6719 48.102 96.5759 48.2792 96.4762 48.4455H95.1797C95.3311 48.2238 95.4678 47.9764 95.5934 47.6883C95.8815 47.0419 96.0477 46.1738 96.6387 45.6752C96.8455 45.4979 97.093 45.3464 97.3959 45.291V45.2504C96.5279 45.1544 95.634 44.6151 95.634 43.5956C95.634 42.9086 96.0071 42.4395 96.5168 42.1477C97.0672 41.83 97.8798 41.6934 98.7478 41.6934C99.5456 41.6934 100.318 41.7635 100.897 41.83V48.4492ZM99.6971 42.5799C99.3942 42.5392 99.1172 42.5097 98.6924 42.5097C97.865 42.5097 96.8862 42.7424 96.8862 43.6658C96.8862 44.5191 97.9463 44.8219 98.6629 44.8219H99.6971V42.5799Z" fill="white"/>
<path d="M110.9 48.1979C110.582 48.3642 109.881 48.5821 108.987 48.5821C106.977 48.5821 105.666 47.2191 105.666 45.1802C105.666 43.1265 107.07 41.6416 109.249 41.6416C109.966 41.6416 110.597 41.8226 110.93 41.9851L110.653 42.9233C110.364 42.7571 109.91 42.6057 109.249 42.6057C107.72 42.6057 106.892 43.7359 106.892 45.1248C106.892 46.6687 107.886 47.618 109.208 47.618C109.895 47.618 110.353 47.437 110.697 47.2856L110.9 48.1979Z" fill="white"/>
<path d="M117.227 41.7817V42.7458H115.148V48.4489H113.947V42.7458H111.868V41.7817H117.227Z" fill="white"/>
<path d="M119.2 41.7817L120.659 45.7192C120.81 46.1588 120.976 46.6833 121.087 47.0822H121.113C121.239 46.6833 121.375 46.1736 121.542 45.6934L122.864 41.7817H124.146L122.328 46.5319C121.46 48.8183 120.869 49.9892 120.042 50.7057C119.451 51.2303 118.856 51.4371 118.553 51.4925L118.251 50.473C118.553 50.377 118.952 50.1849 119.311 49.882C119.639 49.6198 120.053 49.1507 120.33 48.5338C120.385 48.4083 120.426 48.3122 120.426 48.2457C120.426 48.1756 120.4 48.0795 120.345 47.9281L117.877 41.7854H119.2V41.7817Z" fill="white"/>
<path d="M130.318 41.7817V47.5402L131.005 47.555L130.935 50.5691H129.985L129.93 48.4489H125.317L125.261 50.5691H124.312L124.256 47.555L124.822 47.5402C125.11 47.1155 125.331 46.6574 125.483 46.1773C125.745 45.3499 125.867 44.456 125.867 43.5178V41.7817H130.318ZM126.942 43.8059C126.942 44.6887 126.816 45.5419 126.598 46.2844C126.462 46.7387 126.27 47.1524 126.063 47.5255H129.136V42.7052H126.946V43.8059H126.942Z" fill="white"/>
<path d="M133.254 45.3354C133.28 46.9754 134.329 47.6513 135.541 47.6513C136.409 47.6513 136.933 47.4999 137.388 47.3078L137.594 48.1758C137.166 48.3679 136.438 48.5895 135.378 48.5895C133.325 48.5895 132.102 47.2376 132.102 45.2283C132.102 43.2189 133.288 41.6343 135.227 41.6343C137.402 41.6343 137.982 43.5476 137.982 44.7739C137.982 45.0214 137.953 45.2135 137.942 45.3391H133.254V45.3354ZM136.808 44.4674C136.822 43.6954 136.49 42.4986 135.127 42.4986C133.901 42.4986 133.365 43.6289 133.269 44.4674H136.808Z" fill="white"/>
<path d="M140.834 41.7817V44.4671H144.003V41.7817H145.2V48.4489H144.003V45.4311H140.834V48.4489H139.637V41.7817H140.834Z" fill="white"/>
<path d="M151.83 41.7817V42.7458H149.75V48.4489H148.554V42.7458H146.474V41.7817H151.83Z" fill="white"/>
<path d="M158.926 45.0581C158.926 47.5218 157.219 48.5967 155.605 48.5967C153.799 48.5967 152.41 47.2744 152.41 45.1689C152.41 42.9379 153.869 41.6304 155.716 41.6304C157.633 41.6304 158.926 43.0192 158.926 45.0581ZM153.636 45.1283C153.636 46.5873 154.478 47.6918 155.66 47.6918C156.817 47.6918 157.685 46.6021 157.685 45.1025C157.685 43.9722 157.119 42.539 155.686 42.539C154.257 42.539 153.636 43.8614 153.636 45.1283Z" fill="white"/>
<path d="M160.61 41.8629C161.079 41.7816 161.947 41.7114 162.73 41.7114C163.846 41.7114 165.693 41.8924 165.693 43.3773C165.693 44.2047 165.057 44.7144 164.3 44.8806V44.9102C165.279 45.0468 165.995 45.5972 165.995 46.5613C165.995 48.3121 163.79 48.53 162.483 48.53C161.74 48.53 160.968 48.4746 160.61 48.4488V41.8629ZM161.755 47.6472C162.099 47.6879 162.346 47.7026 162.734 47.7026C163.547 47.7026 164.758 47.5106 164.758 46.5465C164.758 45.5824 163.794 45.3756 162.638 45.3756H161.755V47.6472ZM161.77 44.5777H162.678C163.572 44.5777 164.496 44.3155 164.496 43.5324C164.496 42.8712 163.916 42.5536 162.704 42.5536C162.305 42.5536 162.058 42.5794 161.766 42.609V44.5777H161.77Z" fill="white"/>
</svg>
