<svg width="90" height="74" viewBox="0 0 90 74" fill="none" xmlns="http://www.w3.org/2000/svg">
<path d="M35.3321 10.1499L33.3974 5.82838L31.5229 10.1764L11.64 56.2962L4.99767 56.3037L2.91729 56.306L2.9196 58.3864L2.93139 69.0023L2.9337 71.0827L5.01412 71.0804L16.472 71.0675L16.476 71.0675L32.5368 71.0804L34.6172 71.0821L34.6189 69.0017L34.6273 58.3857L34.629 56.3054L32.5486 56.3037L27.68 56.2998L33.6516 42.4483L43.176 63.7228L44.9758 67.7428L46.9375 63.7992L57.6918 42.18L63.3108 56.2999L58.7621 56.3037L56.6817 56.3054L56.6834 58.3858L56.6922 69.0017L56.6939 71.0821L58.7744 71.0804L74.1759 71.0675L74.1802 71.0675L84.985 71.0804L87.0655 71.0829L87.0679 69.0025L87.0804 58.3865L87.0828 56.3062L85.0025 56.3037L79.1628 56.2968L60.9074 10.4232L59.1857 6.09669L57.1118 10.2658L45.6761 33.2549L35.3321 10.1499Z" fill="#F21717" stroke="white" stroke-width="4.16079"/>
</svg>
