<svg width="100" height="100" viewBox="0 0 100 100" fill="none" xmlns="http://www.w3.org/2000/svg">
<path d="M28.125 15L28.1252 85H28.1265H80.6248V32.5L63.1248 15H28.125Z" fill="#E2E5E7"/>
<path d="M63.125 32.5H80.6259L63.1259 15L63.125 32.5Z" fill="#B0B7BD"/>
<path d="M80.625 45.625L67.5 32.5H80.625V45.625Z" fill="#CAD1D8"/>
<path d="M71.8744 74.0623H19.3755L19.375 47.8115L71.8744 47.8117V74.0623Z" fill="#FA3737"/>
<path d="M28.9102 55.2393H28.9116H34.1388C36.4138 55.2393 38.4613 56.7618 38.4613 59.6799C38.4613 62.4449 36.4138 63.9849 34.1388 63.9849H31.2185V67.5002C31.2185 67.5002 30.7285 67.5002 30.0985 67.5002C29.521 67.5002 28.9102 67.5002 28.9102 67.5002V55.2393ZM31.2185 57.4421V61.7996H34.1388C35.3113 61.7996 36.2388 60.7649 36.2388 59.6799C36.2388 58.4571 35.3113 57.4421 34.1388 57.4421H31.2185Z" fill="white"/>
<path d="M40.6797 67.4999L40.6816 55.3965H45.8933C53.8864 55.3965 53.7114 67.4999 46.0508 67.4999H40.6797ZM42.9905 57.5315V65.3671H45.8933C50.6161 65.3671 50.8261 57.5315 45.8933 57.5315H42.9905Z" fill="white"/>
<path d="M56.5427 57.6717V60.452H62.263V62.7423H56.5427V67.498C55.7727 67.498 54.254 67.498 54.254 67.498V55.3949C54.254 55.3949 53.488 55.3945 54.2558 55.3945H62.8602V56.4795V57.6695H56.5427V57.6717Z" fill="white"/>
<path d="M69.6875 74.0625H28.125V76.25H71.875V74.0623C71.875 74.0623 70.8906 74.0625 69.6875 74.0625Z" fill="#CAD1D8"/>
</svg>
